<svg width="33" height="32" viewBox="0 0 33 32" fill="none" xmlns="http://www.w3.org/2000/svg">
<path d="M18.8559 14.7253C20.2106 13.6653 21.1994 12.2118 21.6848 10.5669C22.1701 8.92199 22.1279 7.16754 21.564 5.54763C21 3.92771 19.9424 2.52289 18.5382 1.5286C17.1341 0.534312 15.4532 0 13.7295 0C12.0058 0 10.3249 0.534312 8.92078 1.5286C7.51663 2.52289 6.459 3.92771 5.89505 5.54763C5.3311 7.16754 5.28886 8.92199 5.77421 10.5669C6.25956 12.2118 7.24837 13.6653 8.60307 14.7253C6.28177 15.6502 4.25635 17.1843 2.74275 19.1639C1.22914 21.1435 0.284089 23.4946 0.00833473 25.9663C-0.0116258 26.1468 0.00435039 26.3294 0.0553507 26.5037C0.106351 26.678 0.191377 26.8407 0.305574 26.9823C0.536204 27.2684 0.871654 27.4516 1.23813 27.4917C1.6046 27.5318 1.97208 27.4255 2.25972 27.1961C2.54736 26.9667 2.7316 26.6331 2.77191 26.2687C3.07533 23.5823 4.3633 21.1014 6.38974 19.2998C8.41618 17.4982 11.039 16.5022 13.7571 16.5022C16.4753 16.5022 19.0981 17.4982 21.1245 19.2998C23.151 21.1014 24.4389 23.5823 24.7424 26.2687C24.7799 26.6063 24.9419 26.9182 25.1971 27.144C25.4523 27.3699 25.7826 27.4938 26.1242 27.4917H26.2762C26.6384 27.4503 26.9694 27.2681 27.1972 26.985C27.425 26.7018 27.531 26.3406 27.4921 25.9801C27.2151 23.5013 26.2649 21.1442 24.7435 19.1615C23.2222 17.1789 21.1869 15.6453 18.8559 14.7253ZM13.7295 13.7496C12.6363 13.7496 11.5677 13.4272 10.6588 12.8232C9.74984 12.2192 9.04141 11.3608 8.62308 10.3563C8.20474 9.35193 8.09528 8.2467 8.30855 7.18042C8.52182 6.11414 9.04823 5.1347 9.82121 4.36595C10.5942 3.59721 11.579 3.07368 12.6512 2.86159C13.7234 2.64949 14.8347 2.75835 15.8447 3.17439C16.8546 3.59043 17.7178 4.29497 18.3252 5.19892C18.9325 6.10287 19.2567 7.16563 19.2567 8.2528C19.2567 9.71065 18.6743 11.1088 17.6378 12.1396C16.6013 13.1705 15.1954 13.7496 13.7295 13.7496Z" fill="#000018"/>
<path d="M18.8559 14.7253C20.2106 13.6653 21.1994 12.2118 21.6848 10.5669C22.1701 8.92199 22.1279 7.16754 21.564 5.54763C21 3.92771 19.9424 2.52289 18.5382 1.5286C17.1341 0.534312 15.4532 0 13.7295 0C12.0058 0 10.3249 0.534312 8.92078 1.5286C7.51663 2.52289 6.459 3.92771 5.89505 5.54763C5.3311 7.16754 5.28886 8.92199 5.77421 10.5669C6.25956 12.2118 7.24837 13.6653 8.60307 14.7253C6.28177 15.6502 4.25635 17.1843 2.74275 19.1639C1.22914 21.1435 0.284089 23.4946 0.00833473 25.9663C-0.0116258 26.1468 0.00435039 26.3294 0.0553507 26.5037C0.106351 26.678 0.191377 26.8407 0.305574 26.9823C0.536204 27.2684 0.871654 27.4516 1.23813 27.4917C1.6046 27.5318 1.97208 27.4255 2.25972 27.1961C2.54736 26.9667 2.7316 26.6331 2.77191 26.2687C3.07533 23.5823 4.3633 21.1014 6.38974 19.2998C8.41618 17.4982 11.039 16.5022 13.7571 16.5022C16.4753 16.5022 19.0981 17.4982 21.1245 19.2998C23.151 21.1014 24.4389 23.5823 24.7424 26.2687C24.7799 26.6063 24.9419 26.9182 25.1971 27.144C25.4523 27.3699 25.7826 27.4938 26.1242 27.4917H26.2762C26.6384 27.4503 26.9694 27.2681 27.1972 26.985C27.425 26.7018 27.531 26.3406 27.4921 25.9801C27.2151 23.5013 26.2649 21.1442 24.7435 19.1615C23.2222 17.1789 21.1869 15.6453 18.8559 14.7253ZM13.7295 13.7496C12.6363 13.7496 11.5677 13.4272 10.6588 12.8232C9.74984 12.2192 9.04141 11.3608 8.62308 10.3563C8.20474 9.35193 8.09528 8.2467 8.30855 7.18042C8.52182 6.11414 9.04823 5.1347 9.82121 4.36595C10.5942 3.59721 11.579 3.07368 12.6512 2.86159C13.7234 2.64949 14.8347 2.75835 15.8447 3.17439C16.8546 3.59043 17.7178 4.29497 18.3252 5.19892C18.9325 6.10287 19.2567 7.16563 19.2567 8.2528C19.2567 9.71065 18.6743 11.1088 17.6378 12.1396C16.6013 13.1705 15.1954 13.7496 13.7295 13.7496Z" stroke="white"/>
<circle cx="25.0558" cy="23.2223" r="7.94444" fill="white"/>
<path fill-rule="evenodd" clip-rule="evenodd" d="M25.0557 17.1111C25.7307 17.1111 26.2779 17.6583 26.2779 18.3333V22H29.9446C30.6196 22 31.1668 22.5472 31.1668 23.2222C31.1668 23.8972 30.6196 24.4444 29.9446 24.4444H26.2779V28.1111C26.2779 28.7861 25.7307 29.3333 25.0557 29.3333C24.3807 29.3333 23.8335 28.7861 23.8335 28.1111V24.4444H20.1668C19.4918 24.4444 18.9446 23.8972 18.9446 23.2222C18.9446 22.5472 19.4918 22 20.1668 22H23.8335V18.3333C23.8335 17.6583 24.3807 17.1111 25.0557 17.1111Z" fill="#000018"/>
</svg>
