<svg width="20" height="20" viewBox="0 0 20 20" fill="none" xmlns="http://www.w3.org/2000/svg">
<path fill-rule="evenodd" clip-rule="evenodd" d="M10 18.2609C14.5624 18.2609 18.2609 14.5624 18.2609 10C18.2609 5.43765 14.5624 1.73913 10 1.73913C5.43765 1.73913 1.73913 5.43765 1.73913 10C1.73913 14.5624 5.43765 18.2609 10 18.2609ZM10 20C15.5228 20 20 15.5228 20 10C20 4.47715 15.5228 0 10 0C4.47715 0 0 4.47715 0 10C0 15.5228 4.47715 20 10 20ZM3.91276 9.99998C3.91276 9.51974 4.30208 9.13042 4.78233 9.13042H9.13045V4.78273C9.13045 4.30248 9.51977 3.91317 10 3.91317C10.4803 3.91317 10.8696 4.30248 10.8696 4.78273V9.13042H15.2171C15.6974 9.13042 16.0867 9.51974 16.0867 9.99998C16.0867 10.4802 15.6974 10.8695 15.2171 10.8695H10.8696V15.2175C10.8696 15.6978 10.4803 16.0871 10 16.0871C9.51977 16.0871 9.13045 15.6978 9.13045 15.2175V10.8695H4.78233C4.30208 10.8695 3.91276 10.4802 3.91276 9.99998Z" fill="white"/>
</svg>
