<svg width="13" height="20" viewBox="0 0 13 20" fill="none" xmlns="http://www.w3.org/2000/svg">
<path d="M6.04989 15C5.45262 15 4.96394 14.5332 4.96394 13.9627C4.96394 12.0126 5.8327 10.576 7.78199 9.29494C9.67155 8.05539 10.8281 7.19963 10.8281 5.34808C10.8281 4.08259 10.0734 3.0868 8.59103 2.39182C8.26524 2.24141 7.52679 2.0547 6.51685 2.07545C5.32773 2.091 4.39924 2.37626 3.67165 2.94676C2.2762 4.04628 2.17304 5.37919 2.17304 5.39475C2.14589 5.96526 1.63549 6.40092 1.04364 6.38536C0.440938 6.35943 -0.0260225 5.8719 0.00112632 5.3014C0.00112632 5.20804 0.126011 3.04531 2.28706 1.34416C3.3893 0.478028 4.80104 0.0216236 6.48427 0.000877963C7.67339 -0.0146813 8.79193 0.177216 9.54124 0.524706C11.7729 1.56718 13 3.27869 13 5.34289C13 8.38213 10.8824 9.77209 9.01455 11.0013C7.45077 12.0282 7.13585 12.8943 7.13585 13.9627C7.13585 14.5332 6.64717 15 6.04989 15Z" fill="white"/>
<path d="M6.5 20C7.32843 20 8 19.3284 8 18.5C8 17.6716 7.32843 17 6.5 17C5.67157 17 5 17.6716 5 18.5C5 19.3284 5.67157 20 6.5 20Z" fill="white"/>
</svg>
