<svg width="18" height="18" viewBox="0 0 18 18" fill="none" xmlns="http://www.w3.org/2000/svg">
<path fill-rule="evenodd" clip-rule="evenodd" d="M9 1.5C4.85786 1.5 1.5 4.85786 1.5 9C1.5 13.1421 4.85786 16.5 9 16.5C13.1421 16.5 16.5 13.1421 16.5 9C16.5 4.85786 13.1421 1.5 9 1.5ZM0 9C0 4.02944 4.02944 0 9 0C13.9706 0 18 4.02944 18 9C18 13.9706 13.9706 18 9 18C4.02944 18 0 13.9706 0 9Z" fill="white"/>
<path fill-rule="evenodd" clip-rule="evenodd" d="M9 4C9.55228 4 10 4.3299 10 4.73684L10 10.2632C10 10.6701 9.55228 11 9 11C8.44772 11 8 10.6701 8 10.2632L8 4.73684C8 4.3299 8.44772 4 9 4Z" fill="white"/>
<path d="M10 13C10 13.5523 9.55228 14 9 14C8.44772 14 8 13.5523 8 13C8 12.4477 8.44772 12 9 12C9.55228 12 10 12.4477 10 13Z" fill="white"/>
</svg>
