<svg width="30" height="23" viewBox="0 0 30 23" fill="none" xmlns="http://www.w3.org/2000/svg">
<path fill-rule="evenodd" clip-rule="evenodd" d="M6.86399 0C3.07311 0 0 3.07311 0 6.86399V15.444C0 19.2349 3.07311 22.308 6.86399 22.308H15.444C18.4967 22.308 21.0839 20.3152 21.9758 17.5595L28.279 19.402C28.6247 19.503 28.9978 19.4354 29.2861 19.2193C29.5743 19.0033 29.7439 18.6641 29.7439 18.3039V4.57596C29.7439 4.21576 29.5743 3.87659 29.2861 3.66056C28.9978 3.44452 28.6247 3.37685 28.279 3.47791L22.1236 5.27716C21.4075 2.25136 18.6887 0 15.444 0H6.86399ZM22.308 15.2729V7.60702L27.4559 6.10223V16.7777L22.308 15.2729ZM20.0199 6.84819C20.0114 4.3282 17.966 2.288 15.444 2.288H6.86399C4.33674 2.288 2.288 4.33674 2.288 6.86399V15.444C2.288 17.9712 4.33674 20.02 6.86399 20.02H15.444C17.966 20.02 20.0114 17.9798 20.0199 15.4598V6.84819Z" fill="#000018"/>
</svg>
