<svg width="18" height="20" viewBox="0 0 18 20" fill="none" xmlns="http://www.w3.org/2000/svg">
<path fill-rule="evenodd" clip-rule="evenodd" d="M9.00015 0C5.68638 0 2.70021 2.38605 2.70021 5.5814V9.80372C2.7002 10.4007 2.52922 10.9843 2.20881 11.4809L0.228831 14.5498C0.0918328 14.7625 0.0132769 15.0098 0.00154003 15.2651C-0.0101968 15.5204 0.0453257 15.7742 0.162187 15.9994C0.279047 16.2247 0.452864 16.4129 0.665102 16.5441C0.87734 16.6752 1.12004 16.7444 1.36732 16.7442H5.85018C5.85018 17.1717 5.93166 17.5951 6.08996 17.9901C6.24826 18.3851 6.48028 18.7441 6.77278 19.0464C7.06529 19.3487 7.41254 19.5885 7.79471 19.7522C8.17688 19.9158 8.58649 20 9.00015 20C9.41381 20 9.82342 19.9158 10.2056 19.7522C10.5878 19.5885 10.935 19.3487 11.2275 19.0464C11.52 18.7441 11.752 18.3851 11.9103 17.9901C12.0686 17.5951 12.1501 17.1717 12.1501 16.7442H16.6339C16.8812 16.7442 17.1238 16.6748 17.3359 16.5435C17.548 16.4121 17.7217 16.2237 17.8384 15.9984C17.955 15.773 18.0103 15.5192 17.9984 15.2639C17.9865 15.0086 17.9077 14.7615 17.7706 14.5488L15.7906 11.4809C15.4705 10.9842 15.2998 10.4006 15.3001 9.80372V5.5814C15.3001 2.38605 12.313 0 9.00015 0ZM4.0502 5.5814C4.0502 3.38233 6.19488 1.39535 9.00015 1.39535C11.8054 1.39535 13.9501 3.38233 13.9501 5.5814V9.80372C13.9501 10.6763 14.2003 11.5284 14.6683 12.2549L16.6474 15.3237C16.6492 15.3265 16.6501 15.3297 16.6501 15.333L16.6492 15.3386L16.6456 15.3442L16.6402 15.3479L16.6339 15.3488H1.36642L1.36012 15.3479L1.35472 15.3442L1.35112 15.3386L1.35022 15.3321L1.35292 15.3228L3.3329 12.2549C3.80085 11.5289 4.05043 10.676 4.0502 9.80372V5.5814ZM10.8001 16.7442H7.20017C7.20017 17.2376 7.38981 17.7108 7.72737 18.0597C8.06493 18.4086 8.52277 18.6047 9.00015 18.6047C9.47754 18.6047 9.93537 18.4086 10.2729 18.0597C10.6105 17.7108 10.8001 17.2376 10.8001 16.7442Z" fill="white"/>
</svg>
