<svg width="366" height="229" viewBox="0 0 366 229" fill="none" xmlns="http://www.w3.org/2000/svg">
<rect width="366" height="229" rx="30" fill="#C3FFFF"/>
<path d="M291.301 58.697C293.176 58.697 294.556 59.0707 295.443 59.818C296.342 60.5653 296.792 61.566 296.792 62.82C296.792 63.6307 296.589 64.3717 296.184 65.043C295.779 65.7017 295.158 66.2337 294.322 66.639C293.499 67.0317 292.479 67.228 291.263 67.228C290.326 67.228 289.401 67.1077 288.489 66.867C287.59 66.6137 286.823 66.259 286.19 65.803L287.406 63.447C287.913 63.827 288.495 64.1247 289.154 64.34C289.813 64.5427 290.49 64.644 291.187 64.644C291.96 64.644 292.568 64.492 293.011 64.188C293.454 63.884 293.676 63.4597 293.676 62.915C293.676 62.345 293.442 61.9143 292.973 61.623C292.517 61.3317 291.719 61.186 290.579 61.186H287.178L287.862 53.7H295.975V56.17H290.427L290.218 58.697H291.301ZM303.741 67.228C302.639 67.228 301.657 66.9557 300.796 66.411C299.934 65.8663 299.257 65.081 298.763 64.055C298.281 63.0163 298.041 61.7813 298.041 60.35C298.041 58.9187 298.281 57.69 298.763 56.664C299.257 55.6253 299.934 54.8337 300.796 54.289C301.657 53.7443 302.639 53.472 303.741 53.472C304.843 53.472 305.824 53.7443 306.686 54.289C307.547 54.8337 308.218 55.6253 308.7 56.664C309.194 57.69 309.441 58.9187 309.441 60.35C309.441 61.7813 309.194 63.0163 308.7 64.055C308.218 65.081 307.547 65.8663 306.686 66.411C305.824 66.9557 304.843 67.228 303.741 67.228ZM303.741 64.625C304.551 64.625 305.185 64.2767 305.641 63.58C306.109 62.8833 306.344 61.8067 306.344 60.35C306.344 58.8933 306.109 57.8167 305.641 57.12C305.185 56.4233 304.551 56.075 303.741 56.075C302.943 56.075 302.309 56.4233 301.841 57.12C301.385 57.8167 301.157 58.8933 301.157 60.35C301.157 61.8067 301.385 62.8833 301.841 63.58C302.309 64.2767 302.943 64.625 303.741 64.625ZM314.014 60.882C313.039 60.882 312.241 60.5527 311.62 59.894C311.012 59.2227 310.708 58.3297 310.708 57.215C310.708 56.1003 311.012 55.2137 311.62 54.555C312.241 53.8837 313.039 53.548 314.014 53.548C314.99 53.548 315.781 53.8837 316.389 54.555C316.997 55.2137 317.301 56.1003 317.301 57.215C317.301 58.3297 316.997 59.2227 316.389 59.894C315.781 60.5527 314.99 60.882 314.014 60.882ZM321.937 53.7H324.198L315.116 67H312.855L321.937 53.7ZM314.014 59.324C314.445 59.324 314.781 59.1467 315.021 58.792C315.275 58.4373 315.401 57.9117 315.401 57.215C315.401 56.5183 315.275 55.9927 315.021 55.638C314.781 55.2833 314.445 55.106 314.014 55.106C313.596 55.106 313.261 55.2897 313.007 55.657C312.754 56.0117 312.627 56.531 312.627 57.215C312.627 57.899 312.754 58.4247 313.007 58.792C313.261 59.1467 313.596 59.324 314.014 59.324ZM323.039 67.152C322.406 67.152 321.836 67.0063 321.329 66.715C320.835 66.411 320.449 65.9803 320.17 65.423C319.892 64.8657 319.752 64.2197 319.752 63.485C319.752 62.7503 319.892 62.1043 320.17 61.547C320.449 60.9897 320.835 60.5653 321.329 60.274C321.836 59.97 322.406 59.818 323.039 59.818C324.015 59.818 324.806 60.1537 325.414 60.825C326.035 61.4837 326.345 62.3703 326.345 63.485C326.345 64.5997 326.035 65.4927 325.414 66.164C324.806 66.8227 324.015 67.152 323.039 67.152ZM323.039 65.594C323.47 65.594 323.806 65.4167 324.046 65.062C324.3 64.6947 324.426 64.169 324.426 63.485C324.426 62.801 324.3 62.2817 324.046 61.927C323.806 61.5597 323.47 61.376 323.039 61.376C322.621 61.376 322.286 61.5533 322.032 61.908C321.779 62.2627 321.652 62.7883 321.652 63.485C321.652 64.1817 321.779 64.7073 322.032 65.062C322.286 65.4167 322.621 65.594 323.039 65.594Z" fill="black"/>
<circle cx="246.5" cy="60.5" r="21.5" stroke="#000018" stroke-width="4"/>
<path d="M234 66C240.25 75.3333 251.434 75.3333 259 66" stroke="#000018" stroke-width="4" stroke-linecap="round"/>
<circle cx="241.5" cy="54.5" r="2.5" fill="#000018"/>
<circle cx="251.5" cy="54.5" r="2.5" fill="#000018"/>
<path d="M296.678 123.492V126H286.627V124.005L291.757 119.16C292.302 118.641 292.669 118.197 292.859 117.83C293.049 117.45 293.144 117.076 293.144 116.709C293.144 116.177 292.96 115.772 292.593 115.493C292.238 115.202 291.713 115.056 291.016 115.056C290.433 115.056 289.908 115.17 289.439 115.398C288.97 115.613 288.578 115.943 288.261 116.386L286.019 114.942C286.538 114.169 287.254 113.568 288.166 113.137C289.078 112.694 290.123 112.472 291.301 112.472C292.289 112.472 293.15 112.637 293.885 112.966C294.632 113.283 295.209 113.739 295.614 114.334C296.032 114.917 296.241 115.607 296.241 116.405C296.241 117.127 296.089 117.805 295.785 118.438C295.481 119.071 294.892 119.793 294.018 120.604L290.959 123.492H296.678ZM302.508 117.697C304.383 117.697 305.763 118.071 306.65 118.818C307.549 119.565 307.999 120.566 307.999 121.82C307.999 122.631 307.796 123.372 307.391 124.043C306.986 124.702 306.365 125.234 305.529 125.639C304.706 126.032 303.686 126.228 302.47 126.228C301.533 126.228 300.608 126.108 299.696 125.867C298.797 125.614 298.03 125.259 297.397 124.803L298.613 122.447C299.12 122.827 299.702 123.125 300.361 123.34C301.02 123.543 301.697 123.644 302.394 123.644C303.167 123.644 303.775 123.492 304.218 123.188C304.661 122.884 304.883 122.46 304.883 121.915C304.883 121.345 304.649 120.914 304.18 120.623C303.724 120.332 302.926 120.186 301.786 120.186H298.385L299.069 112.7H307.182V115.17H301.634L301.425 117.697H302.508ZM312.14 119.882C311.165 119.882 310.367 119.553 309.746 118.894C309.138 118.223 308.834 117.33 308.834 116.215C308.834 115.1 309.138 114.214 309.746 113.555C310.367 112.884 311.165 112.548 312.14 112.548C313.116 112.548 313.907 112.884 314.515 113.555C315.123 114.214 315.427 115.1 315.427 116.215C315.427 117.33 315.123 118.223 314.515 118.894C313.907 119.553 313.116 119.882 312.14 119.882ZM320.063 112.7H322.324L313.242 126H310.981L320.063 112.7ZM312.14 118.324C312.571 118.324 312.907 118.147 313.147 117.792C313.401 117.437 313.527 116.912 313.527 116.215C313.527 115.518 313.401 114.993 313.147 114.638C312.907 114.283 312.571 114.106 312.14 114.106C311.722 114.106 311.387 114.29 311.133 114.657C310.88 115.012 310.753 115.531 310.753 116.215C310.753 116.899 310.88 117.425 311.133 117.792C311.387 118.147 311.722 118.324 312.14 118.324ZM321.165 126.152C320.532 126.152 319.962 126.006 319.455 125.715C318.961 125.411 318.575 124.98 318.296 124.423C318.018 123.866 317.878 123.22 317.878 122.485C317.878 121.75 318.018 121.104 318.296 120.547C318.575 119.99 318.961 119.565 319.455 119.274C319.962 118.97 320.532 118.818 321.165 118.818C322.141 118.818 322.932 119.154 323.54 119.825C324.161 120.484 324.471 121.37 324.471 122.485C324.471 123.6 324.161 124.493 323.54 125.164C322.932 125.823 322.141 126.152 321.165 126.152ZM321.165 124.594C321.596 124.594 321.932 124.417 322.172 124.062C322.426 123.695 322.552 123.169 322.552 122.485C322.552 121.801 322.426 121.282 322.172 120.927C321.932 120.56 321.596 120.376 321.165 120.376C320.747 120.376 320.412 120.553 320.158 120.908C319.905 121.263 319.778 121.788 319.778 122.485C319.778 123.182 319.905 123.707 320.158 124.062C320.412 124.417 320.747 124.594 321.165 124.594Z" fill="black"/>
<circle cx="246.5" cy="119.5" r="21.5" stroke="#19D3C5" stroke-width="4"/>
<path d="M234 125H259" stroke="#19D3C5" stroke-width="4" stroke-linecap="round"/>
<circle cx="241.5" cy="113.5" r="2.5" fill="#19D3C5"/>
<circle cx="251.5" cy="113.5" r="2.5" fill="#19D3C5"/>
<path d="M296.678 182.492V185H286.627V183.005L291.757 178.16C292.302 177.641 292.669 177.197 292.859 176.83C293.049 176.45 293.144 176.076 293.144 175.709C293.144 175.177 292.96 174.772 292.593 174.493C292.238 174.202 291.713 174.056 291.016 174.056C290.433 174.056 289.908 174.17 289.439 174.398C288.97 174.613 288.578 174.943 288.261 175.386L286.019 173.942C286.538 173.169 287.254 172.568 288.166 172.137C289.078 171.694 290.123 171.472 291.301 171.472C292.289 171.472 293.15 171.637 293.885 171.966C294.632 172.283 295.209 172.739 295.614 173.334C296.032 173.917 296.241 174.607 296.241 175.405C296.241 176.127 296.089 176.805 295.785 177.438C295.481 178.071 294.892 178.793 294.018 179.604L290.959 182.492H296.678ZM302.508 176.697C304.383 176.697 305.763 177.071 306.65 177.818C307.549 178.565 307.999 179.566 307.999 180.82C307.999 181.631 307.796 182.372 307.391 183.043C306.986 183.702 306.365 184.234 305.529 184.639C304.706 185.032 303.686 185.228 302.47 185.228C301.533 185.228 300.608 185.108 299.696 184.867C298.797 184.614 298.03 184.259 297.397 183.803L298.613 181.447C299.12 181.827 299.702 182.125 300.361 182.34C301.02 182.543 301.697 182.644 302.394 182.644C303.167 182.644 303.775 182.492 304.218 182.188C304.661 181.884 304.883 181.46 304.883 180.915C304.883 180.345 304.649 179.914 304.18 179.623C303.724 179.332 302.926 179.186 301.786 179.186H298.385L299.069 171.7H307.182V174.17H301.634L301.425 176.697H302.508ZM312.14 178.882C311.165 178.882 310.367 178.553 309.746 177.894C309.138 177.223 308.834 176.33 308.834 175.215C308.834 174.1 309.138 173.214 309.746 172.555C310.367 171.884 311.165 171.548 312.14 171.548C313.116 171.548 313.907 171.884 314.515 172.555C315.123 173.214 315.427 174.1 315.427 175.215C315.427 176.33 315.123 177.223 314.515 177.894C313.907 178.553 313.116 178.882 312.14 178.882ZM320.063 171.7H322.324L313.242 185H310.981L320.063 171.7ZM312.14 177.324C312.571 177.324 312.907 177.147 313.147 176.792C313.401 176.437 313.527 175.912 313.527 175.215C313.527 174.518 313.401 173.993 313.147 173.638C312.907 173.283 312.571 173.106 312.14 173.106C311.722 173.106 311.387 173.29 311.133 173.657C310.88 174.012 310.753 174.531 310.753 175.215C310.753 175.899 310.88 176.425 311.133 176.792C311.387 177.147 311.722 177.324 312.14 177.324ZM321.165 185.152C320.532 185.152 319.962 185.006 319.455 184.715C318.961 184.411 318.575 183.98 318.296 183.423C318.018 182.866 317.878 182.22 317.878 181.485C317.878 180.75 318.018 180.104 318.296 179.547C318.575 178.99 318.961 178.565 319.455 178.274C319.962 177.97 320.532 177.818 321.165 177.818C322.141 177.818 322.932 178.154 323.54 178.825C324.161 179.484 324.471 180.37 324.471 181.485C324.471 182.6 324.161 183.493 323.54 184.164C322.932 184.823 322.141 185.152 321.165 185.152ZM321.165 183.594C321.596 183.594 321.932 183.417 322.172 183.062C322.426 182.695 322.552 182.169 322.552 181.485C322.552 180.801 322.426 180.282 322.172 179.927C321.932 179.56 321.596 179.376 321.165 179.376C320.747 179.376 320.412 179.553 320.158 179.908C319.905 180.263 319.778 180.788 319.778 181.485C319.778 182.182 319.905 182.707 320.158 183.062C320.412 183.417 320.747 183.594 321.165 183.594Z" fill="black"/>
<circle cx="246.5" cy="178.5" r="21.5" stroke="#037C73" stroke-width="4"/>
<path d="M234 187C240.25 177.667 251.434 177.667 259 187" stroke="#037C73" stroke-width="4" stroke-linecap="round"/>
<circle cx="241.5" cy="172.5" r="2.5" fill="#037C73"/>
<circle cx="251.5" cy="172.5" r="2.5" fill="#037C73"/>
<g filter="url(#filter0_d_237_44)">
<circle cx="110.5" cy="114.5" r="67" stroke="#000018" stroke-width="29"/>
<path d="M177.5 114.5C177.5 123.299 175.767 132.011 172.4 140.14C169.033 148.269 164.098 155.655 157.876 161.876C151.655 168.098 144.269 173.033 136.14 176.4C128.011 179.767 119.299 181.5 110.5 181.5C101.701 181.5 92.989 179.767 84.8602 176.4C76.7314 173.033 69.3454 168.098 63.1238 161.876C56.9023 155.655 51.9671 148.269 48.6001 140.14C45.233 132.011 43.5 123.299 43.5 114.5C43.5 105.701 45.233 96.989 48.6001 88.8602C51.9671 80.7314 56.9023 73.3454 63.1239 67.1238C69.3454 60.9023 76.7314 55.9671 84.8602 52.6001C92.989 49.233 101.701 47.5 110.5 47.5C119.299 47.5 128.011 49.233 136.14 52.6001C144.269 55.9671 151.655 60.9023 157.876 67.1239C164.098 73.3454 169.033 80.7314 172.4 88.8602C175.767 96.989 177.5 105.701 177.5 114.5L177.5 114.5Z" stroke="#000018" stroke-width="29" stroke-linecap="round"/>
<path d="M177.5 114.5C177.5 123.299 175.767 132.011 172.4 140.14C169.033 148.269 164.098 155.655 157.876 161.876C151.655 168.098 144.269 173.033 136.14 176.4C128.011 179.767 119.299 181.5 110.5 181.5C101.701 181.5 92.989 179.767 84.8602 176.4C76.7314 173.033 69.3454 168.098 63.1238 161.876C56.9023 155.655 51.9671 148.269 48.6001 140.14C45.233 132.011 43.5 123.299 43.5 114.5" stroke="#037C73" stroke-width="29" stroke-linecap="round"/>
<path d="M177.5 114.5C177.5 123.299 175.767 132.011 172.4 140.14C169.033 148.269 164.098 155.655 157.876 161.876C151.655 168.098 144.269 173.033 136.14 176.4C128.011 179.767 119.299 181.5 110.5 181.5" stroke="#19D3C5" stroke-width="29" stroke-linecap="round"/>
</g>
<defs>
<filter id="filter0_d_237_44" x="20" y="32" width="181" height="181" filterUnits="userSpaceOnUse" color-interpolation-filters="sRGB">
<feFlood flood-opacity="0" result="BackgroundImageFix"/>
<feColorMatrix in="SourceAlpha" type="matrix" values="0 0 0 0 0 0 0 0 0 0 0 0 0 0 0 0 0 0 127 0" result="hardAlpha"/>
<feOffset dy="8"/>
<feGaussianBlur stdDeviation="4.5"/>
<feComposite in2="hardAlpha" operator="out"/>
<feColorMatrix type="matrix" values="0 0 0 0 0 0 0 0 0 0 0 0 0 0 0 0 0 0 0.1 0"/>
<feBlend mode="normal" in2="BackgroundImageFix" result="effect1_dropShadow_237_44"/>
<feBlend mode="normal" in="SourceGraphic" in2="effect1_dropShadow_237_44" result="shape"/>
</filter>
</defs>
</svg>
