<svg width="33" height="33" viewBox="0 0 33 33" fill="none" xmlns="http://www.w3.org/2000/svg">
<path fill-rule="evenodd" clip-rule="evenodd" d="M16.9716 0C18.4014 0 19.7949 0.447489 20.9497 1.27891L30.227 7.9539C31.0802 8.56778 31.7749 9.37105 32.2542 10.2992C32.7336 11.2275 32.9837 12.2541 32.9837 13.2959V25.3907C32.9837 27.1498 32.2718 28.8347 31.0079 30.0754C29.7444 31.3158 28.0329 32.0108 26.2504 32.0108H7.70621C5.92368 32.0108 4.21215 31.3158 2.94866 30.0754C1.68483 28.8347 0.9729 27.1498 0.9729 25.3907V13.2949C0.972869 12.2535 1.22269 11.2272 1.70161 10.2992C2.1805 9.37126 2.8748 8.56804 3.72738 7.95403L12.9933 1.27902C14.1482 0.447527 15.5418 0 16.9716 0ZM19.0913 3.80985L18.9127 3.68731C18.3062 3.30284 17.5941 3.10724 16.8704 3.12756C16.1437 3.14796 15.4415 3.38511 14.8572 3.80607L5.59775 10.4754L5.42779 10.6054C5.02401 10.9333 4.69951 11.3437 4.47673 11.8073C4.25294 12.2729 4.13713 12.7809 4.13719 13.2949V25.3836L4.14197 25.5716C4.18908 26.4612 4.58183 27.3014 5.24272 27.9185C5.90559 28.5375 6.78742 28.8843 7.70621 28.8843H11.2752V24.3794C11.2752 22.8885 11.8786 21.4608 12.9492 20.4098C14.0195 19.3591 15.469 18.7707 16.9783 18.7707C18.4876 18.7707 19.9371 19.3591 21.0074 20.4098C22.078 21.4608 22.6814 22.8885 22.6814 24.3794V28.8843H26.2436L26.4359 28.8795C27.3511 28.8329 28.2112 28.4437 28.8399 27.7948C29.4698 27.1447 29.8194 26.2838 29.8194 25.3907V13.3034L29.8137 13.0929C29.7833 12.5823 29.6387 12.0841 29.3897 11.6336C29.1394 11.1807 28.7895 10.787 28.3645 10.4812L19.0913 3.80985ZM18.7239 22.5769C18.2551 22.1429 17.6337 21.899 16.9856 21.8972L16.821 21.9018C16.1744 21.941 15.5692 22.2203 15.1276 22.68C14.6846 23.1413 14.4395 23.7494 14.4395 24.3793V28.8843H19.5171V24.3874L19.5124 24.2263C19.4729 23.6003 19.1922 23.0103 18.7239 22.5769Z" fill="white"/>
</svg>
