<svg width="20" height="20" viewBox="0 0 20 20" fill="none" xmlns="http://www.w3.org/2000/svg">
<path d="M12.3449 12.7784C12.9184 12.3297 13.3369 11.7145 13.5423 11.0182C13.7478 10.3219 13.7299 9.57931 13.4912 8.89363C13.2525 8.20795 12.8048 7.61331 12.2104 7.19244C11.6161 6.77158 10.9046 6.54541 10.175 6.54541C9.44538 6.54541 8.7339 6.77158 8.13954 7.19244C7.54519 7.61331 7.09751 8.20795 6.8588 8.89363C6.62009 9.57931 6.60221 10.3219 6.80765 11.0182C7.01309 11.7145 7.43164 12.3297 8.00506 12.7784C7.02249 13.1699 6.16517 13.8192 5.52448 14.6572C4.8838 15.4951 4.48378 16.4903 4.36705 17.5365C4.3586 17.6129 4.36537 17.6902 4.38695 17.764C4.40854 17.8378 4.44453 17.9066 4.49287 17.9666C4.59049 18.0877 4.73248 18.1652 4.8876 18.1822C5.04273 18.1992 5.19827 18.1542 5.32003 18.0571C5.44178 17.96 5.51977 17.8188 5.53683 17.6645C5.66526 16.5274 6.21044 15.4773 7.0682 14.7147C7.92595 13.9521 9.03616 13.5305 10.1867 13.5305C11.3372 13.5305 12.4474 13.9521 13.3052 14.7147C14.1629 15.4773 14.7081 16.5274 14.8366 17.6645C14.8525 17.8074 14.921 17.9394 15.029 18.035C15.1371 18.1306 15.2769 18.1831 15.4214 18.1822H15.4858C15.6391 18.1646 15.7792 18.0875 15.8756 17.9677C15.9721 17.8478 16.0169 17.695 16.0005 17.5423C15.8832 16.4931 15.481 15.4954 14.8371 14.6562C14.1931 13.8169 13.3316 13.1678 12.3449 12.7784ZM10.175 12.3654C9.71228 12.3654 9.25995 12.2289 8.87521 11.9733C8.49047 11.7176 8.19061 11.3542 8.01353 10.9291C7.83645 10.5039 7.79012 10.0361 7.8804 9.58476C7.97067 9.13342 8.19349 8.71884 8.52068 8.39344C8.84787 8.06805 9.26474 7.84645 9.71857 7.75667C10.1724 7.6669 10.6428 7.71297 11.0703 7.88908C11.4978 8.06518 11.8632 8.3634 12.1203 8.74603C12.3773 9.12865 12.5146 9.5785 12.5146 10.0387C12.5146 10.6558 12.2681 11.2476 11.8293 11.6839C11.3906 12.1203 10.7955 12.3654 10.175 12.3654Z" fill="white"/>
<path d="M12.3449 12.7784C12.9184 12.3297 13.3369 11.7145 13.5423 11.0182C13.7478 10.3219 13.7299 9.57931 13.4912 8.89363C13.2525 8.20795 12.8048 7.61331 12.2104 7.19244C11.6161 6.77158 10.9046 6.54541 10.175 6.54541C9.44538 6.54541 8.7339 6.77158 8.13954 7.19244C7.54519 7.61331 7.09751 8.20795 6.8588 8.89363C6.62009 9.57931 6.60221 10.3219 6.80765 11.0182C7.01309 11.7145 7.43164 12.3297 8.00506 12.7784C7.02249 13.1699 6.16517 13.8192 5.52448 14.6572C4.8838 15.4951 4.48378 16.4903 4.36705 17.5365C4.3586 17.6129 4.36537 17.6902 4.38695 17.764C4.40854 17.8378 4.44453 17.9066 4.49287 17.9666C4.59049 18.0877 4.73248 18.1652 4.8876 18.1822C5.04273 18.1992 5.19827 18.1542 5.32003 18.0571C5.44178 17.96 5.51977 17.8188 5.53683 17.6645C5.66526 16.5274 6.21044 15.4773 7.0682 14.7147C7.92595 13.9521 9.03616 13.5305 10.1867 13.5305C11.3372 13.5305 12.4474 13.9521 13.3052 14.7147C14.1629 15.4773 14.7081 16.5274 14.8366 17.6645C14.8525 17.8074 14.921 17.9394 15.029 18.035C15.1371 18.1306 15.2769 18.1831 15.4214 18.1822H15.4858C15.6391 18.1646 15.7792 18.0875 15.8756 17.9677C15.9721 17.8478 16.0169 17.695 16.0005 17.5423C15.8832 16.4931 15.481 15.4954 14.8371 14.6562C14.1931 13.8169 13.3316 13.1678 12.3449 12.7784ZM10.175 12.3654C9.71228 12.3654 9.25995 12.2289 8.87521 11.9733C8.49047 11.7176 8.19061 11.3542 8.01353 10.9291C7.83645 10.5039 7.79012 10.0361 7.8804 9.58476C7.97067 9.13342 8.19349 8.71884 8.52068 8.39344C8.84787 8.06805 9.26474 7.84645 9.71857 7.75667C10.1724 7.6669 10.6428 7.71297 11.0703 7.88908C11.4978 8.06518 11.8632 8.3634 12.1203 8.74603C12.3773 9.12865 12.5146 9.5785 12.5146 10.0387C12.5146 10.6558 12.2681 11.2476 11.8293 11.6839C11.3906 12.1203 10.7955 12.3654 10.175 12.3654Z" stroke="white"/>
<path fill-rule="evenodd" clip-rule="evenodd" d="M10 1.45455C5.28048 1.45455 1.45455 5.28048 1.45455 10C1.45455 14.7195 5.28048 18.5455 10 18.5455C14.7195 18.5455 18.5455 14.7195 18.5455 10C18.5455 5.28048 14.7195 1.45455 10 1.45455ZM0 10C0 4.47715 4.47715 0 10 0C15.5228 0 20 4.47715 20 10C20 15.5228 15.5228 20 10 20C4.47715 20 0 15.5228 0 10Z" fill="white"/>
</svg>
