<svg width="21" height="20" viewBox="0 0 21 20" fill="none" xmlns="http://www.w3.org/2000/svg">
<path d="M12.5729 8.28596C12.3896 8.08974 12.1411 7.9795 11.8819 7.9795C11.6228 7.9795 11.3742 8.08974 11.191 8.28596L10.5 9.02492C10.3197 9.22486 10.104 9.38433 9.86553 9.49404C9.62705 9.60376 9.37057 9.66151 9.11103 9.66392C8.85149 9.66634 8.5941 9.61337 8.35389 9.50811C8.11367 9.40286 7.89542 9.24742 7.7119 9.05087C7.52837 8.85431 7.38323 8.62058 7.28495 8.36332C7.18667 8.10605 7.13721 7.8304 7.13947 7.55244C7.14172 7.27448 7.19564 6.99979 7.29808 6.74439C7.40053 6.48899 7.54944 6.258 7.73613 6.0649L13.2385 0.169971C14.5412 -0.147356 15.9041 -0.0167593 17.1335 0.543192C18.363 1.10314 19.3962 2.06394 20.0865 3.28898C20.7767 4.51401 21.0887 5.94091 20.9782 7.36679C20.8677 8.79267 20.3403 10.1449 19.4709 11.2313L17.4107 13.466L12.5729 8.28596ZM1.86142 1.99329C2.87272 0.910371 4.19549 0.224376 5.61588 0.0462175C7.03626 -0.131941 8.47125 0.208149 9.68882 1.01151L6.35321 4.58488C5.63077 5.35705 5.21896 6.4012 5.20577 7.49421C5.19258 8.58722 5.57906 9.64241 6.28263 10.4343C6.98619 11.2262 7.95105 11.692 8.97103 11.7322C9.991 11.7724 10.9852 11.3838 11.7412 10.6494L11.8819 10.506L16.0287 14.946L11.8819 19.3871C11.5154 19.7795 11.0183 20 10.5 20C9.9817 20 9.48461 19.7795 9.11806 19.3871L1.86045 11.6144C0.669218 10.3385 0 8.60814 0 6.80385C0 4.99957 0.670195 3.26917 1.86142 1.99329Z" fill="#000018"/>
</svg>
