<svg width="25" height="25" viewBox="0 0 25 25" fill="none" xmlns="http://www.w3.org/2000/svg">
<path fill-rule="evenodd" clip-rule="evenodd" d="M12.5 1.17647C6.24619 1.17647 1.17647 6.24619 1.17647 12.5C1.17647 18.7538 6.24619 23.8235 12.5 23.8235C18.7538 23.8235 23.8235 18.7538 23.8235 12.5C23.8235 6.24619 18.7538 1.17647 12.5 1.17647ZM0 12.5C0 5.59644 5.59644 0 12.5 0C19.4036 0 25 5.59644 25 12.5C25 19.4036 19.4036 25 12.5 25C5.59644 25 0 19.4036 0 12.5Z" fill="#F9F9F9"/>
<path d="M9.5 11C10.3284 11 11 10.3284 11 9.5C11 8.67157 10.3284 8 9.5 8C8.67157 8 8 8.67157 8 9.5C8 10.3284 8.67157 11 9.5 11Z" fill="#F9F9F9"/>
<path d="M15.5 11C16.3284 11 17 10.3284 17 9.5C17 8.67157 16.3284 8 15.5 8C14.6716 8 14 8.67157 14 9.5C14 10.3284 14.6716 11 15.5 11Z" fill="#F9F9F9"/>
<path fill-rule="evenodd" clip-rule="evenodd" d="M7.13644 14.1905C7.2424 14.0695 7.39615 14 7.55785 14H17.4422C17.6039 14 17.7576 14.0695 17.8636 14.1905C17.9695 14.3115 18.0172 14.472 17.9944 14.6306C17.7493 16.3313 17.187 17.6844 16.2482 18.6143C15.2984 19.555 14.0265 20 12.5 20C10.9735 20 9.70163 19.555 8.75176 18.6143C7.81298 17.6844 7.25069 16.3313 7.0056 14.6306C6.98275 14.472 7.03049 14.3115 7.13644 14.1905ZM8.22083 15.105C8.4789 16.3362 8.93147 17.2295 9.54068 17.8329C10.2383 18.5239 11.2024 18.895 12.5 18.895C13.7976 18.895 14.7617 18.5239 15.4593 17.8329C16.0685 17.2295 16.5211 16.3362 16.7792 15.105H8.22083Z" fill="#F9F9F9"/>
</svg>
