<svg width="6" height="6" viewBox="0 0 6 6" fill="none" xmlns="http://www.w3.org/2000/svg">
<path fill-rule="evenodd" clip-rule="evenodd" d="M5.29453 3.32697C5.08483 3.47767 4.7637 3.64613 4.30512 3.8858L2.63659 4.75782C1.96709 5.10773 1.48598 5.35862 1.1269 5.49128C0.754404 5.62889 0.615179 5.60017 0.541414 5.54488C0.467649 5.48958 0.410509 5.37112 0.490401 5.01418C0.567414 4.6701 0.749996 4.19544 1.0049 3.53477L1.1323 3.20457L3.06221 3.20457C3.18702 3.20457 3.28819 3.11298 3.28819 3C3.28819 2.88702 3.18702 2.79543 3.06221 2.79543L1.1323 2.79543L1.0049 2.46523C0.749996 1.80456 0.567414 1.3299 0.490401 0.985823C0.410509 0.628879 0.467649 0.510416 0.541414 0.455125C0.615179 0.399833 0.754404 0.371108 1.12691 0.508724C1.48598 0.64138 1.96709 0.892275 2.63659 1.24218L4.30512 2.1142C4.7637 2.35387 5.08483 2.52233 5.29453 2.67303C5.50263 2.82257 5.54803 2.91758 5.54803 3C5.54803 3.08242 5.50263 3.17743 5.29453 3.32697ZM0.732488 3L0.571517 3.41721C0.324706 4.05689 0.131346 4.55803 0.0474344 4.93293C-0.0343536 5.29835 -0.0361721 5.64313 0.25316 5.86C0.542491 6.07687 0.916347 6.01096 1.29769 5.87008C1.68892 5.72554 2.19676 5.46012 2.84499 5.12133L4.54838 4.23109C4.98569 4.00254 5.33642 3.81925 5.57555 3.64741C5.81942 3.47216 6 3.2719 6 3C6 2.7281 5.81942 2.52784 5.57555 2.35259C5.33642 2.18075 4.9857 1.99746 4.54838 1.76891L2.845 0.878671C2.19677 0.539881 1.68892 0.274463 1.29769 0.129924C0.916347 -0.0109577 0.542491 -0.0768706 0.25316 0.140002C-0.0361721 0.356874 -0.0343536 0.701653 0.0474344 1.06707C0.131346 1.44197 0.324705 1.94311 0.571517 2.58279L0.732488 3Z" fill="#FEFEFE"/>
</svg>
