<svg width="28" height="23" viewBox="0 0 28 23" fill="none" xmlns="http://www.w3.org/2000/svg">
<path fill-rule="evenodd" clip-rule="evenodd" d="M8.3149 8.05003C9.58515 8.05003 10.6149 7.02028 10.6149 5.75003C10.6149 4.47977 9.58515 3.45003 8.3149 3.45003C7.04465 3.45003 6.0149 4.47977 6.0149 5.75003C6.0149 7.02028 7.04465 8.05003 8.3149 8.05003ZM8.3149 11.5C10.9469 11.5 13.1659 9.73164 13.8485 7.3182H25.8734C26.8578 7.3182 27.6558 6.6161 27.6558 5.75002C27.6558 4.88394 26.8578 4.18184 25.8734 4.18184H13.8485C13.1658 1.76841 10.9469 3.05176e-05 8.3149 3.05176e-05C5.68292 3.05176e-05 3.46396 1.76841 2.78135 4.18184H2.25629C1.27189 4.18184 0.473877 4.88394 0.473877 5.75002C0.473877 6.6161 1.27189 7.3182 2.25629 7.3182H2.78134C3.46395 9.73164 5.68291 11.5 8.3149 11.5Z" fill="#000018"/>
<path fill-rule="evenodd" clip-rule="evenodd" d="M19.815 19.55C18.5447 19.55 17.515 18.5203 17.515 17.25C17.515 15.9797 18.5447 14.95 19.815 14.95C21.0852 14.95 22.115 15.9797 22.115 17.25C22.115 18.5203 21.0852 19.55 19.815 19.55ZM19.815 23C17.183 23 14.964 21.2316 14.2814 18.8182H2.25614C1.27174 18.8182 0.473722 18.1161 0.473722 17.25C0.473722 16.3839 1.27174 15.6818 2.25614 15.6818H14.2814C14.964 13.2684 17.183 11.5 19.815 11.5C22.4469 11.5 24.6659 13.2684 25.3485 15.6818H25.8733C26.8577 15.6818 27.6558 16.3839 27.6558 17.25C27.6558 18.1161 26.8577 18.8182 25.8733 18.8182H25.3485C24.6659 21.2316 22.4469 23 19.815 23Z" fill="#000018"/>
</svg>
