<svg width="27" height="27" viewBox="0 0 27 27" fill="none" xmlns="http://www.w3.org/2000/svg">
<path d="M17.1755 25.3302C17.5701 25.331 17.9526 25.1936 18.2564 24.9418C18.4275 24.8 18.5688 24.6259 18.6724 24.4294C18.7761 24.2329 18.8399 24.0179 18.8603 23.7966C18.8807 23.5754 18.8572 23.3524 18.7913 23.1402C18.7254 22.9281 18.6182 22.731 18.476 22.5604L10.9096 13.5077L18.2058 4.43809C18.3461 4.26533 18.4508 4.06655 18.5141 3.85317C18.5773 3.63979 18.5977 3.41602 18.5742 3.19472C18.5506 2.97343 18.4836 2.75896 18.3769 2.56366C18.2702 2.36836 18.1259 2.19606 17.9524 2.05669C17.7777 1.90293 17.573 1.78696 17.3514 1.71604C17.1297 1.64512 16.8957 1.6208 16.6642 1.64459C16.4326 1.66837 16.2085 1.73977 16.0058 1.85428C15.8032 1.96879 15.6264 2.12395 15.4866 2.31003L7.32902 12.4437C7.08061 12.7459 6.94481 13.1249 6.94481 13.5161C6.94481 13.9073 7.08061 14.2864 7.32902 14.5886L15.7737 24.7222C15.9431 24.9266 16.1584 25.0882 16.4019 25.1938C16.6455 25.2995 16.9105 25.3462 17.1755 25.3302Z" fill="#000018"/>
</svg>
