<svg width="496" height="239" viewBox="0 0 496 239" fill="none" xmlns="http://www.w3.org/2000/svg">
<path opacity="0.15" d="M128 77.5V178.5" stroke="url(#paint0_linear_169_156)"/>
<path opacity="0.15" d="M275 21V179" stroke="url(#paint1_linear_169_156)"/>
<path opacity="0.15" d="M422 7L422 179" stroke="url(#paint2_linear_169_156)"/>
<path d="M115.205 167.668H116.981V171.076C116.525 171.42 115.997 171.684 115.397 171.868C114.797 172.052 114.193 172.144 113.585 172.144C112.713 172.144 111.929 171.96 111.233 171.592C110.537 171.216 109.989 170.7 109.589 170.044C109.197 169.38 109.001 168.632 109.001 167.8C109.001 166.968 109.197 166.224 109.589 165.568C109.989 164.904 110.541 164.388 111.245 164.02C111.949 163.644 112.741 163.456 113.621 163.456C114.357 163.456 115.025 163.58 115.625 163.828C116.225 164.076 116.729 164.436 117.137 164.908L115.889 166.06C115.289 165.428 114.565 165.112 113.717 165.112C113.181 165.112 112.705 165.224 112.289 165.448C111.873 165.672 111.549 165.988 111.317 166.396C111.085 166.804 110.969 167.272 110.969 167.8C110.969 168.32 111.085 168.784 111.317 169.192C111.549 169.6 111.869 169.92 112.277 170.152C112.693 170.376 113.165 170.488 113.693 170.488C114.253 170.488 114.757 170.368 115.205 170.128V167.668ZM124.979 168.796C124.979 168.82 124.967 168.988 124.943 169.3H120.059C120.147 169.7 120.355 170.016 120.683 170.248C121.011 170.48 121.419 170.596 121.907 170.596C122.243 170.596 122.539 170.548 122.795 170.452C123.059 170.348 123.303 170.188 123.527 169.972L124.523 171.052C123.915 171.748 123.027 172.096 121.859 172.096C121.131 172.096 120.487 171.956 119.927 171.676C119.367 171.388 118.935 170.992 118.631 170.488C118.327 169.984 118.175 169.412 118.175 168.772C118.175 168.14 118.323 167.572 118.619 167.068C118.923 166.556 119.335 166.16 119.855 165.88C120.383 165.592 120.971 165.448 121.619 165.448C122.251 165.448 122.823 165.584 123.335 165.856C123.847 166.128 124.247 166.52 124.535 167.032C124.831 167.536 124.979 168.124 124.979 168.796ZM121.631 166.864C121.207 166.864 120.851 166.984 120.563 167.224C120.275 167.464 120.099 167.792 120.035 168.208H123.215C123.151 167.8 122.975 167.476 122.687 167.236C122.399 166.988 122.047 166.864 121.631 166.864ZM130.149 165.448C130.949 165.448 131.593 165.688 132.081 166.168C132.577 166.648 132.825 167.36 132.825 168.304V172H130.953V168.592C130.953 168.08 130.841 167.7 130.617 167.452C130.393 167.196 130.069 167.068 129.645 167.068C129.173 167.068 128.797 167.216 128.517 167.512C128.237 167.8 128.097 168.232 128.097 168.808V172H126.225V165.544H128.013V166.3C128.261 166.028 128.569 165.82 128.937 165.676C129.305 165.524 129.709 165.448 130.149 165.448ZM140.917 168.796C140.917 168.82 140.905 168.988 140.881 169.3H135.997C136.085 169.7 136.293 170.016 136.621 170.248C136.949 170.48 137.357 170.596 137.845 170.596C138.181 170.596 138.477 170.548 138.733 170.452C138.997 170.348 139.241 170.188 139.465 169.972L140.461 171.052C139.853 171.748 138.965 172.096 137.797 172.096C137.069 172.096 136.425 171.956 135.865 171.676C135.305 171.388 134.873 170.992 134.569 170.488C134.265 169.984 134.113 169.412 134.113 168.772C134.113 168.14 134.261 167.572 134.557 167.068C134.861 166.556 135.273 166.16 135.793 165.88C136.321 165.592 136.909 165.448 137.557 165.448C138.189 165.448 138.761 165.584 139.273 165.856C139.785 166.128 140.185 166.52 140.473 167.032C140.769 167.536 140.917 168.124 140.917 168.796ZM137.569 166.864C137.145 166.864 136.789 166.984 136.501 167.224C136.213 167.464 136.037 167.792 135.973 168.208H139.153C139.089 167.8 138.913 167.476 138.625 167.236C138.337 166.988 137.985 166.864 137.569 166.864ZM143.951 166.396C144.175 166.084 144.475 165.848 144.851 165.688C145.235 165.528 145.675 165.448 146.171 165.448V167.176C145.963 167.16 145.823 167.152 145.751 167.152C145.215 167.152 144.795 167.304 144.491 167.608C144.187 167.904 144.035 168.352 144.035 168.952V172H142.163V165.544H143.951V166.396Z" fill="#000018"/>
<path d="M256.862 165.16V167.38H260.75V168.94H256.862V172H254.918V163.6H261.266V165.16H256.862ZM268.61 168.796C268.61 168.82 268.598 168.988 268.574 169.3H263.69C263.778 169.7 263.986 170.016 264.314 170.248C264.642 170.48 265.05 170.596 265.538 170.596C265.874 170.596 266.17 170.548 266.426 170.452C266.69 170.348 266.934 170.188 267.158 169.972L268.154 171.052C267.546 171.748 266.658 172.096 265.49 172.096C264.762 172.096 264.118 171.956 263.558 171.676C262.998 171.388 262.566 170.992 262.262 170.488C261.958 169.984 261.806 169.412 261.806 168.772C261.806 168.14 261.954 167.572 262.25 167.068C262.554 166.556 262.966 166.16 263.486 165.88C264.014 165.592 264.602 165.448 265.25 165.448C265.882 165.448 266.454 165.584 266.966 165.856C267.478 166.128 267.878 166.52 268.166 167.032C268.462 167.536 268.61 168.124 268.61 168.796ZM265.262 166.864C264.838 166.864 264.482 166.984 264.194 167.224C263.906 167.464 263.73 167.792 263.666 168.208H266.846C266.782 167.8 266.606 167.476 266.318 167.236C266.03 166.988 265.678 166.864 265.262 166.864ZM273.672 165.448C274.272 165.448 274.816 165.588 275.304 165.868C275.8 166.14 276.188 166.528 276.468 167.032C276.748 167.528 276.888 168.108 276.888 168.772C276.888 169.436 276.748 170.02 276.468 170.524C276.188 171.02 275.8 171.408 275.304 171.688C274.816 171.96 274.272 172.096 273.672 172.096C272.784 172.096 272.108 171.816 271.644 171.256V172H269.856V163.096H271.728V166.228C272.2 165.708 272.848 165.448 273.672 165.448ZM273.348 170.56C273.828 170.56 274.22 170.4 274.524 170.08C274.836 169.752 274.992 169.316 274.992 168.772C274.992 168.228 274.836 167.796 274.524 167.476C274.22 167.148 273.828 166.984 273.348 166.984C272.868 166.984 272.472 167.148 272.16 167.476C271.856 167.796 271.704 168.228 271.704 168.772C271.704 169.316 271.856 169.752 272.16 170.08C272.472 170.4 272.868 170.56 273.348 170.56ZM279.929 166.396C280.153 166.084 280.453 165.848 280.829 165.688C281.213 165.528 281.653 165.448 282.149 165.448V167.176C281.941 167.16 281.801 167.152 281.729 167.152C281.193 167.152 280.773 167.304 280.469 167.608C280.165 167.904 280.013 168.352 280.013 168.952V172H278.141V165.544H279.929V166.396ZM289.528 168.796C289.528 168.82 289.516 168.988 289.492 169.3H284.608C284.696 169.7 284.904 170.016 285.232 170.248C285.56 170.48 285.968 170.596 286.456 170.596C286.792 170.596 287.088 170.548 287.344 170.452C287.608 170.348 287.852 170.188 288.076 169.972L289.072 171.052C288.464 171.748 287.576 172.096 286.408 172.096C285.68 172.096 285.036 171.956 284.476 171.676C283.916 171.388 283.484 170.992 283.18 170.488C282.876 169.984 282.724 169.412 282.724 168.772C282.724 168.14 282.872 167.572 283.168 167.068C283.472 166.556 283.884 166.16 284.404 165.88C284.932 165.592 285.52 165.448 286.168 165.448C286.8 165.448 287.372 165.584 287.884 165.856C288.396 166.128 288.796 166.52 289.084 167.032C289.38 167.536 289.528 168.124 289.528 168.796ZM286.18 166.864C285.756 166.864 285.4 166.984 285.112 167.224C284.824 167.464 284.648 167.792 284.584 168.208H287.764C287.7 167.8 287.524 167.476 287.236 167.236C286.948 166.988 286.596 166.864 286.18 166.864ZM292.562 166.396C292.786 166.084 293.086 165.848 293.462 165.688C293.846 165.528 294.286 165.448 294.782 165.448V167.176C294.574 167.16 294.434 167.152 294.362 167.152C293.826 167.152 293.406 167.304 293.102 167.608C292.798 167.904 292.646 168.352 292.646 168.952V172H290.774V165.544H292.562V166.396Z" fill="#000018"/>
<path d="M9.77381 133.055L4 146V239H489V49.957L483.226 43.3686C477.452 36.7802 465.905 23.6035 454.357 14.2986C442.81 4.99371 431.262 -0.43935 419.714 8.71566C408.167 17.8707 396.619 41.6137 385.071 59.3333C373.524 77.0529 361.976 88.749 350.429 84.091C338.881 79.4331 327.333 58.4211 315.786 41.469C304.238 24.5168 292.69 11.6247 281.143 16.6552C269.595 21.6857 258.048 44.639 246.5 58.2903C234.952 71.9417 223.405 76.2911 211.857 87.5001C200.31 98.709 188.762 116.777 177.214 117.016C165.667 117.255 154.119 99.6632 142.571 88.2382C131.024 76.8133 119.476 71.5546 107.929 75.2963C96.381 79.038 84.8333 91.78 73.2857 92.1187C61.7381 92.4574 50.1905 80.3928 38.6429 87.3058C27.0952 94.2188 15.5476 120.109 9.77381 133.055Z" fill="url(#paint3_linear_169_156)" fill-opacity="0.1"/>
<path d="M4 146L9.82143 133.055C15.6429 120.109 27.2857 94.2188 38.9286 87.3058C50.5714 80.3928 62.2143 92.4574 73.8571 92.1187C85.5 91.78 97.1428 79.038 108.786 75.2963C120.429 71.5546 132.071 76.8133 143.714 88.2382C155.357 99.6632 167 117.255 178.643 117.016C190.286 116.777 201.929 98.709 213.571 87.5001C225.214 76.2911 236.857 71.9417 248.5 58.2903C260.143 44.639 271.786 21.6857 283.429 16.6552C295.071 11.6247 306.714 24.5168 318.357 41.469C330 58.4211 341.643 79.4331 353.286 84.091C364.929 88.749 376.571 77.0529 388.214 59.3333C399.857 41.6137 411.5 17.8707 423.143 8.71566C434.786 -0.439351 446.429 4.99371 458.071 14.2986C469.714 23.6035 481.357 36.7802 487.179 43.3686L493 49.957" stroke="#19D3C5" stroke-width="7"/>
<circle cx="128" cy="76" r="7" fill="#19D3C5"/>
<circle cx="275" cy="23" r="7" fill="#19D3C5"/>
<circle cx="422" cy="9" r="7" fill="#19D3C5"/>
<path d="M414.63 172L414.618 166.96L412.146 171.112H411.27L408.81 167.068V172H406.986V163.6H408.594L411.738 168.82L414.834 163.6H416.43L416.454 172H414.63ZM420.919 165.448C421.919 165.448 422.687 165.688 423.223 166.168C423.759 166.64 424.027 167.356 424.027 168.316V172H422.275V171.196C421.923 171.796 421.267 172.096 420.307 172.096C419.811 172.096 419.379 172.012 419.011 171.844C418.651 171.676 418.375 171.444 418.183 171.148C417.991 170.852 417.895 170.516 417.895 170.14C417.895 169.54 418.119 169.068 418.567 168.724C419.023 168.38 419.723 168.208 420.667 168.208H422.155C422.155 167.8 422.031 167.488 421.783 167.272C421.535 167.048 421.163 166.936 420.667 166.936C420.323 166.936 419.983 166.992 419.647 167.104C419.319 167.208 419.039 167.352 418.807 167.536L418.135 166.228C418.487 165.98 418.907 165.788 419.395 165.652C419.891 165.516 420.399 165.448 420.919 165.448ZM420.775 170.836C421.095 170.836 421.379 170.764 421.627 170.62C421.875 170.468 422.051 170.248 422.155 169.96V169.3H420.871C420.103 169.3 419.719 169.552 419.719 170.056C419.719 170.296 419.811 170.488 419.995 170.632C420.187 170.768 420.447 170.836 420.775 170.836ZM427.509 166.396C427.733 166.084 428.033 165.848 428.409 165.688C428.793 165.528 429.233 165.448 429.729 165.448V167.176C429.521 167.16 429.381 167.152 429.309 167.152C428.773 167.152 428.353 167.304 428.049 167.608C427.745 167.904 427.593 168.352 427.593 168.952V172H425.721V165.544H427.509V166.396ZM433.904 172.096C433.216 172.096 432.596 171.956 432.044 171.676C431.5 171.388 431.072 170.992 430.76 170.488C430.456 169.984 430.304 169.412 430.304 168.772C430.304 168.132 430.456 167.56 430.76 167.056C431.072 166.552 431.5 166.16 432.044 165.88C432.596 165.592 433.216 165.448 433.904 165.448C434.584 165.448 435.176 165.592 435.68 165.88C436.192 166.16 436.564 166.564 436.796 167.092L435.344 167.872C435.008 167.28 434.524 166.984 433.892 166.984C433.404 166.984 433 167.144 432.68 167.464C432.36 167.784 432.2 168.22 432.2 168.772C432.2 169.324 432.36 169.76 432.68 170.08C433 170.4 433.404 170.56 433.892 170.56C434.532 170.56 435.016 170.264 435.344 169.672L436.796 170.464C436.564 170.976 436.192 171.376 435.68 171.664C435.176 171.952 434.584 172.096 433.904 172.096ZM433.22 174.784C433.012 174.784 432.808 174.76 432.608 174.712C432.408 174.672 432.24 174.612 432.104 174.532L432.392 173.728C432.648 173.848 432.908 173.908 433.172 173.908C433.588 173.908 433.796 173.78 433.796 173.524C433.796 173.292 433.6 173.176 433.208 173.176H432.8L433.112 171.904H434.108L433.94 172.6C434.292 172.64 434.552 172.748 434.72 172.924C434.896 173.108 434.984 173.332 434.984 173.596C434.984 173.964 434.824 174.252 434.504 174.46C434.184 174.676 433.756 174.784 433.22 174.784Z" fill="#000018"/>
<defs>
<linearGradient id="paint0_linear_169_156" x1="128.5" y1="77.5" x2="128.5" y2="178.5" gradientUnits="userSpaceOnUse">
<stop offset="0.114583" stop-color="#000018"/>
<stop offset="1" stop-color="#000018" stop-opacity="0"/>
</linearGradient>
<linearGradient id="paint1_linear_169_156" x1="275.5" y1="21" x2="275.5" y2="179" gradientUnits="userSpaceOnUse">
<stop offset="0.114583" stop-color="#000018"/>
<stop offset="1" stop-color="#000018" stop-opacity="0"/>
</linearGradient>
<linearGradient id="paint2_linear_169_156" x1="422.5" y1="7" x2="422.5" y2="179" gradientUnits="userSpaceOnUse">
<stop offset="0.114583" stop-color="#000018"/>
<stop offset="1" stop-color="#000018" stop-opacity="0"/>
</linearGradient>
<linearGradient id="paint3_linear_169_156" x1="246.5" y1="4" x2="246.5" y2="239" gradientUnits="userSpaceOnUse">
<stop/>
<stop offset="1" stop-opacity="0"/>
</linearGradient>
</defs>
</svg>
