<svg width="20" height="20" viewBox="0 0 20 20" fill="none" xmlns="http://www.w3.org/2000/svg">
<path fill-rule="evenodd" clip-rule="evenodd" d="M7.14678 0C7.54844 0 7.87405 0.325608 7.87405 0.727266V2.31816H11.1117C11.122 2.31794 11.1323 2.31794 11.1426 2.31816H13.5663C13.968 2.31816 14.2936 2.64377 14.2936 3.04542C14.2936 3.44708 13.968 3.77269 13.5663 3.77269H11.6858C11.6646 3.84697 11.6412 3.92788 11.6154 4.01492C11.4693 4.5083 11.2474 5.20052 10.9428 6.0022C10.3363 7.59846 9.39004 9.66098 8.03952 11.452C6.7092 13.2162 5.34484 14.5453 4.31113 15.435C3.79387 15.8801 3.35818 16.2163 3.04919 16.4429C2.89466 16.5562 2.77169 16.6422 2.68591 16.7008C2.64302 16.7301 2.60941 16.7526 2.58579 16.7682C2.57398 16.776 2.56467 16.782 2.55794 16.7864L2.54979 16.7917L2.54626 16.794L2.54588 16.7942C2.54572 16.7943 2.54558 16.7944 2.15383 16.1817L2.54558 16.7944C2.20717 17.0108 1.75745 16.9118 1.54109 16.5734C1.32478 16.2351 1.42362 15.7855 1.76183 15.5691M1.76183 15.5691L1.76547 15.5667L1.7842 15.5544C1.80168 15.5429 1.82902 15.5246 1.86553 15.4997C1.93857 15.4498 2.04826 15.3732 2.18907 15.2699C2.47076 15.0634 2.87652 14.7506 3.36231 14.3325C4.33469 13.4956 5.62285 12.241 6.87817 10.5762C8.11329 8.93827 9.00147 7.01646 9.58307 5.48562C9.83866 4.81288 10.0327 4.22189 10.1695 3.77269H0.727266C0.325608 3.77269 0 3.44708 0 3.04542C0 2.64377 0.325608 2.31816 0.727266 2.31816H6.41952V0.727266C6.41952 0.325608 6.74513 0 7.14678 0M14.9929 7.7272C15.2913 7.7272 15.5594 7.90946 15.6691 8.18693L19.9488 19.005C20.0966 19.3785 19.9136 19.8011 19.5401 19.9488C19.1666 20.0966 18.744 19.9136 18.5963 19.5401L17.5554 16.9089H12.4303L11.3895 19.5401C11.2417 19.9136 10.8191 20.0966 10.4456 19.9488C10.0722 19.8011 9.88916 19.3785 10.0369 19.005L14.3166 8.18693C14.4264 7.90946 14.6945 7.7272 14.9929 7.7272ZM13.0058 15.4544H16.98L14.9929 10.4315L13.0058 15.4544Z" fill="white"/>
<path fill-rule="evenodd" clip-rule="evenodd" d="M5.37779 6.34631C5.37783 6.34638 5.37775 6.34624 5.37779 6.34631C5.13015 5.97072 4.65383 5.88767 4.31374 6.16112C3.97347 6.43471 3.8983 6.96138 4.14583 7.33746L4.76194 6.84208C4.14583 7.33746 4.14576 7.33735 4.14583 7.33746L4.14763 7.34018L4.15084 7.34502L4.16151 7.36099C4.17052 7.37439 4.1833 7.39327 4.19985 7.41739C4.23294 7.46561 4.28109 7.53476 4.34422 7.62283C4.47045 7.79893 4.65665 8.05078 4.90204 8.36221C5.39267 8.98487 6.12088 9.84689 7.08066 10.8183C8.05117 11.8006 8.99348 12.5662 9.69324 13.0867C10.0437 13.3473 10.3347 13.5475 10.54 13.6837C10.6426 13.7518 10.724 13.8039 10.7806 13.8397C10.809 13.8575 10.8312 13.8713 10.8468 13.8809L10.8653 13.8923L10.8707 13.8956L10.8725 13.8966L10.8731 13.897C10.8732 13.8971 10.8736 13.8973 11.238 13.1578L10.8736 13.8973C11.2432 14.1197 11.7059 13.9689 11.9071 13.5605C12.1082 13.1522 11.972 12.6409 11.6027 12.4184C11.6027 12.4184 11.6026 12.4184 11.6027 12.4184L11.6023 12.4182L11.6004 12.417L11.5885 12.4097C11.5772 12.4028 11.5595 12.3918 11.5358 12.3769C11.4883 12.3469 11.4167 12.301 11.3241 12.2396C11.1388 12.1167 10.8702 11.932 10.5439 11.6894C9.89029 11.2033 9.01122 10.4887 8.10974 9.57624C7.19755 8.65297 6.50913 7.83739 6.05112 7.25612C5.82219 6.96559 5.65107 6.7339 5.53856 6.57695C5.48232 6.49848 5.44075 6.43873 5.41396 6.39969C5.40056 6.38016 5.39086 6.36582 5.38487 6.3569L5.37867 6.34763L5.37779 6.34631Z" fill="white"/>
</svg>
