<svg width="20" height="20" viewBox="0 0 20 20" fill="none" xmlns="http://www.w3.org/2000/svg">
<path fill-rule="evenodd" clip-rule="evenodd" d="M10 1.81818C7.83005 1.81818 5.74897 2.68019 4.21458 4.21458C2.68019 5.74897 1.81818 7.83005 1.81818 10C1.81818 11.0745 2.02981 12.1384 2.44099 13.131C2.85216 14.1237 3.45483 15.0257 4.21458 15.7854C4.97433 16.5452 5.87629 17.1478 6.86895 17.559C7.86162 17.9702 8.92555 18.1818 10 18.1818C11.0745 18.1818 12.1384 17.9702 13.131 17.559C14.1237 17.1478 15.0257 16.5452 15.7854 15.7854C16.5452 15.0257 17.1478 14.1237 17.559 13.131C17.9702 12.1384 18.1818 11.0745 18.1818 10C18.1818 7.83005 17.3198 5.74897 15.7854 4.21458C14.251 2.68019 12.17 1.81818 10 1.81818ZM2.92893 2.92893C4.8043 1.05357 7.34784 0 10 0C12.6522 0 15.1957 1.05357 17.0711 2.92893C18.9464 4.8043 20 7.34784 20 10C20 11.3132 19.7413 12.6136 19.2388 13.8268C18.7362 15.0401 17.9997 16.1425 17.0711 17.0711C16.1425 17.9997 15.0401 18.7362 13.8268 19.2388C12.6136 19.7413 11.3132 20 10 20C8.68678 20 7.38642 19.7413 6.17317 19.2388C4.95991 18.7362 3.85752 17.9997 2.92893 17.0711C2.00035 16.1425 1.26375 15.0401 0.761205 13.8268C0.258658 12.6136 0 11.3132 0 10C5.4186e-08 7.34784 1.05357 4.8043 2.92893 2.92893ZM9.09091 5.9596C9.09091 5.45752 9.49792 5.05051 10 5.05051H10.0101C10.5122 5.05051 10.9192 5.45752 10.9192 5.9596C10.9192 6.46167 10.5122 6.86869 10.0101 6.86869H10C9.49792 6.86869 9.09091 6.46167 9.09091 5.9596ZM8.08081 10C8.08081 9.49792 8.48782 9.09091 8.9899 9.09091H10C10.5021 9.09091 10.9091 9.49792 10.9091 10V13.1313H11.0101C11.5122 13.1313 11.9192 13.5383 11.9192 14.0404C11.9192 14.5425 11.5122 14.9495 11.0101 14.9495H10C9.49792 14.9495 9.09091 14.5425 9.09091 14.0404V10.9091H8.9899C8.48782 10.9091 8.08081 10.5021 8.08081 10Z" fill="white"/>
</svg>
