<svg width="20" height="19" viewBox="0 0 20 19" fill="none" xmlns="http://www.w3.org/2000/svg">
<path fill-rule="evenodd" clip-rule="evenodd" d="M8.74268 1.55946C8.39371 1.55946 8.05903 1.69808 7.81228 1.94484C7.56552 2.1916 7.42689 2.52628 7.42689 2.87525V4.97077C7.42689 5.4014 7.07779 5.7505 6.64716 5.7505C6.21653 5.7505 5.86743 5.4014 5.86743 4.97077V2.87525C5.86743 2.11269 6.17036 1.38136 6.70957 0.842141C7.24879 0.302927 7.98012 0 8.74268 0H17.1248C17.8873 0 18.6187 0.302927 19.1579 0.842141C19.6971 1.38136 20 2.11269 20 2.87525V15.4484C20 16.2109 19.6971 16.9423 19.1579 17.4815C18.6187 18.0207 17.8873 18.3236 17.1248 18.3236H9.16179C8.38925 18.3236 7.59461 18.0179 6.9896 17.5439C6.38758 17.0722 5.86743 16.344 5.86743 15.4484V13.3529C5.86743 12.9222 6.21653 12.5731 6.64716 12.5731C7.07779 12.5731 7.42689 12.9222 7.42689 13.3529V15.4484C7.42689 15.7101 7.58542 16.0296 7.9514 16.3163C8.3144 16.6008 8.77707 16.7642 9.16179 16.7642H17.1248C17.4737 16.7642 17.8084 16.6255 18.0552 16.3788C18.3019 16.132 18.4406 15.7973 18.4406 15.4484V2.87525C18.4406 2.52628 18.3019 2.1916 18.0552 1.94484C17.8084 1.69808 17.4737 1.55946 17.1248 1.55946H8.74268Z" fill="white"/>
<path fill-rule="evenodd" clip-rule="evenodd" d="M11.1251 4.4193C11.4296 4.11479 11.9233 4.11479 12.2278 4.4193L16.4188 8.61034C16.5651 8.75657 16.6472 8.95489 16.6472 9.16169C16.6472 9.36849 16.5651 9.56681 16.4188 9.71304L12.2278 13.9041C11.9233 14.2086 11.4296 14.2086 11.1251 13.9041C10.8206 13.5996 10.8206 13.1059 11.1251 12.8014L13.9851 9.94142H0.779728C0.349096 9.94142 0 9.59232 0 9.16169C0 8.73106 0.349096 8.38196 0.779728 8.38196H13.9851L11.1251 5.522C10.8206 5.21749 10.8206 4.7238 11.1251 4.4193Z" fill="white"/>
</svg>
