<svg width="72" height="69" viewBox="0 0 72 69" fill="none" xmlns="http://www.w3.org/2000/svg">
<path d="M43.1071 28.5866C42.4787 27.9096 41.6266 27.5293 40.7381 27.5293C39.8496 27.5293 38.9974 27.9096 38.369 28.5866L36 31.136C35.3818 31.8258 34.6423 32.3759 33.8247 32.7545C33.007 33.133 32.1277 33.3322 31.2378 33.3405C30.348 33.3489 29.4655 33.1661 28.6419 32.803C27.8183 32.4399 27.07 31.9036 26.4408 31.2255C25.8116 30.5474 25.3139 29.741 24.977 28.8534C24.64 27.9659 24.4704 27.0149 24.4782 26.0559C24.4859 25.097 24.6708 24.1493 25.022 23.2682C25.3732 22.387 25.8838 21.5901 26.5239 20.9239L45.389 0.5864C49.8554 -0.508378 54.5284 -0.0578197 58.7436 1.87401C62.9587 3.80584 66.5014 7.12061 68.8679 11.347C71.2344 15.5733 72.3042 20.4961 71.9253 25.4154C71.5464 30.3347 69.738 35.0001 66.7573 38.7481L59.6937 46.4577L43.1071 28.5866ZM6.38203 6.87687C9.84933 3.14078 14.3845 0.774099 19.2544 0.15945C24.1243 -0.455198 29.0443 0.718114 33.2188 3.48969L21.7824 15.8179C19.3055 18.4818 17.8936 22.0841 17.8484 25.855C17.8031 29.6259 19.1282 33.2663 21.5404 35.9984C23.9527 38.7304 27.2607 40.3375 30.7578 40.4761C34.2549 40.6148 37.6636 39.274 40.2556 36.7403L40.7381 36.2456L54.9556 51.5637L40.7381 66.8855C39.4813 68.2394 37.777 69 36 69C34.223 69 32.5187 68.2394 31.2619 66.8855L6.37868 40.0697C2.29446 35.668 0 29.6981 0 23.4733C0 17.2485 2.29781 11.2786 6.38203 6.87687Z" fill="#FF0000"/>
</svg>
