<svg width="282" height="39" viewBox="0 0 282 39" fill="none" xmlns="http://www.w3.org/2000/svg">
<g clip-path="url(#clip0_100_814)">
<path d="M108.305 1.56926C106.247 -0.516413 102.901 -0.516413 100.843 1.56926L90.4637 12.0887L80.0848 1.56926C78.027 -0.516413 74.6805 -0.516413 72.6227 1.56926C70.5649 3.65493 70.5649 7.04667 72.6227 9.13234L83.0017 19.6518L72.9324 29.8574C70.8746 31.9431 70.8746 35.3348 72.9324 37.4205C73.9613 38.4633 75.3098 38.9898 76.6684 38.9898C78.027 38.9898 79.3755 38.4633 80.4044 37.4205L108.325 9.12222C110.383 7.03655 110.383 3.6448 108.325 1.55913L108.305 1.56926Z" fill="#19D3C5"/>
<path d="M128.553 0C123.419 0 118.584 2.02492 114.948 5.71028C111.312 9.39564 109.314 14.2858 109.314 19.5C109.314 24.7142 111.312 29.6044 114.948 33.2897C118.584 36.9751 123.409 39 128.553 39C133.698 39 138.523 36.9751 142.159 33.2897C145.795 29.6044 147.793 24.7142 147.793 19.5C147.793 14.2858 145.795 9.39564 142.159 5.71028C138.523 2.02492 133.698 0 128.553 0V0ZM128.553 28.2983C123.768 28.2983 119.872 24.3497 119.872 19.5C119.872 14.6503 123.768 10.7017 128.553 10.7017C133.338 10.7017 137.234 14.6503 137.234 19.5C137.234 24.3497 133.338 28.2983 128.553 28.2983Z" fill="#19D3C5"/>
<path d="M184.064 0.0202637C181.187 0.0202637 178.85 2.38942 178.85 5.30531V19.7329C178.85 24.5218 175.004 28.4198 170.279 28.4198C165.554 28.4198 161.708 24.5218 161.708 19.7329V5.30531C161.708 2.38942 159.37 0.0202637 156.494 0.0202637C153.617 0.0202637 151.279 2.38942 151.279 5.30531V19.7329C151.279 24.8762 153.257 29.7157 156.843 33.3505C160.429 36.9852 165.204 38.9899 170.279 38.9899C175.353 38.9899 180.128 36.9852 183.715 33.3505C187.301 29.7157 189.279 24.8762 189.279 19.7329V5.30531C189.279 2.38942 186.941 0.0202637 184.064 0.0202637Z" fill="#19D3C5"/>
<path d="M239.705 0.242992C236.898 -0.647974 233.911 0.94159 233.042 3.78661L225.57 21.5857L222.723 16.5942C222.054 15.4198 221.005 14.5896 219.826 14.1846H219.786C219.726 14.1542 219.666 14.134 219.606 14.1137C219.576 14.1137 219.546 14.0935 219.527 14.0935C219.487 14.0833 219.437 14.0732 219.397 14.0631C219.357 14.053 219.317 14.0428 219.267 14.0327C219.237 14.0327 219.197 14.0226 219.167 14.0125C219.117 14.0023 219.057 13.9922 219.007 13.9821C218.977 13.9821 218.957 13.9821 218.927 13.972C218.867 13.972 218.807 13.9517 218.747 13.9416C218.717 13.9416 218.697 13.9416 218.667 13.9416C218.607 13.9416 218.548 13.9315 218.488 13.9213C218.458 13.9213 218.428 13.9213 218.398 13.9213C218.348 13.9213 218.288 13.9213 218.238 13.9213C218.198 13.9213 218.158 13.9213 218.108 13.9213C218.068 13.9213 218.028 13.9213 217.978 13.9213C217.928 13.9213 217.868 13.9213 217.818 13.9213C217.788 13.9213 217.758 13.9213 217.728 13.9213C217.668 13.9213 217.609 13.9315 217.549 13.9416C217.519 13.9416 217.499 13.9416 217.469 13.9416C217.409 13.9416 217.349 13.9618 217.289 13.972C217.259 13.972 217.239 13.972 217.209 13.9821C217.159 13.9821 217.099 14.0023 217.049 14.0125C217.019 14.0125 216.979 14.0226 216.949 14.0327C216.909 14.0327 216.869 14.053 216.819 14.0631C216.779 14.0732 216.729 14.0833 216.69 14.0935C216.66 14.0935 216.63 14.1137 216.61 14.1137C216.55 14.134 216.49 14.1542 216.43 14.1745H216.39C215.211 14.5896 214.162 15.4097 213.493 16.5942L210.646 21.5857L203.174 3.78661C202.295 0.94159 199.318 -0.647974 196.511 0.242992C193.704 1.13396 192.136 4.15109 193.015 6.99611L204.862 35.1931C205.332 36.7321 206.42 37.8964 207.769 38.514C207.849 38.5545 207.919 38.5849 207.999 38.6153L208.049 38.6355C208.109 38.6558 208.169 38.6861 208.229 38.7064C208.258 38.7064 208.288 38.7266 208.318 38.7368C208.368 38.757 208.418 38.7671 208.468 38.7874C208.508 38.7975 208.538 38.8076 208.578 38.8178C208.628 38.8279 208.668 38.838 208.718 38.8481C208.758 38.8481 208.798 38.8684 208.838 38.8785C208.878 38.8785 208.928 38.8988 208.968 38.9089C209.008 38.9089 209.058 38.9291 209.098 38.9291C209.138 38.9291 209.178 38.9393 209.227 38.9494C209.267 38.9494 209.317 38.9595 209.357 38.9696C209.397 38.9696 209.447 38.9696 209.487 38.9798C209.527 38.9798 209.577 38.9798 209.617 38.9798C209.657 38.9798 209.707 38.9798 209.747 38.9798C209.787 38.9798 209.837 38.9798 209.877 38.9798C209.917 38.9798 209.957 38.9798 210.007 38.9798C210.057 38.9798 210.097 38.9798 210.146 38.9798C210.186 38.9798 210.226 38.9798 210.266 38.9798C210.316 38.9798 210.376 38.9798 210.426 38.9696C210.456 38.9696 210.486 38.9696 210.516 38.9696C210.576 38.9696 210.646 38.9595 210.706 38.9494H210.766C210.846 38.9291 210.926 38.9089 211.006 38.8988H211.016C211.125 38.8785 211.225 38.8481 211.335 38.8178C212.654 38.4634 213.833 37.5927 214.572 36.3069L218.138 30.0701L221.704 36.3069C222.443 37.5927 223.622 38.4634 224.941 38.8178C225.041 38.8481 225.151 38.8684 225.26 38.8886H225.27C225.35 38.9089 225.43 38.919 225.51 38.9291H225.57C225.63 38.9494 225.7 38.9595 225.76 38.9595C225.79 38.9595 225.82 38.9595 225.85 38.9595C225.9 38.9595 225.95 38.9595 226.01 38.9696C226.05 38.9696 226.09 38.9696 226.129 38.9696C226.179 38.9696 226.219 38.9696 226.269 38.9696C226.309 38.9696 226.349 38.9696 226.399 38.9696C226.439 38.9696 226.489 38.9696 226.529 38.9696C226.569 38.9696 226.619 38.9696 226.659 38.9696C226.699 38.9696 226.749 38.9696 226.789 38.9696C226.829 38.9696 226.879 38.9696 226.919 38.9595C226.959 38.9595 227.009 38.9494 227.049 38.9393C227.088 38.9393 227.138 38.9291 227.178 38.919C227.218 38.919 227.268 38.9089 227.308 38.8988C227.348 38.8988 227.398 38.8785 227.438 38.8684C227.478 38.8684 227.518 38.8481 227.558 38.838C227.608 38.8279 227.648 38.8178 227.698 38.8076C227.738 38.8076 227.768 38.7874 227.808 38.7773C227.858 38.7671 227.908 38.7469 227.958 38.7266C227.988 38.7266 228.017 38.7064 228.047 38.6963C228.107 38.676 228.167 38.6558 228.227 38.6254L228.277 38.6051C228.357 38.5748 228.427 38.5444 228.507 38.5039C229.846 37.8863 230.934 36.722 231.414 35.183L243.261 6.98598C244.14 4.14097 242.572 1.11371 239.765 0.232867L239.705 0.242992Z" fill="#19D3C5"/>
<path d="M276.716 28.2983H262.761C259.964 28.2983 257.466 26.9517 255.878 24.8559H265.977C268.894 24.8559 271.261 22.4564 271.261 19.5C271.261 16.5436 268.894 14.1441 265.977 14.1441H255.878C257.466 12.0483 259.964 10.7017 262.761 10.7017H276.716C279.633 10.7017 282 8.30218 282 5.34579C282 2.38941 279.633 0 276.716 0H262.761C257.616 0 252.791 2.02492 249.155 5.71028C245.519 9.39564 243.521 14.2858 243.521 19.5C243.521 24.7142 245.519 29.6044 249.155 33.2897C252.791 36.9751 257.616 39 262.761 39H276.716C279.633 39 282 36.6005 282 33.6441C282 30.6877 279.633 28.2882 276.716 28.2882V28.2983Z" fill="#19D3C5"/>
<path d="M51.4953 1.56926L23.575 29.8574C21.5172 31.9431 21.5172 35.3348 23.575 37.4205C24.6039 38.4633 25.9524 38.9898 27.311 38.9898C28.6696 38.9898 30.0181 38.4633 31.047 37.4205L58.9573 9.13234C61.0151 7.04667 61.0151 3.65493 58.9573 1.56926C56.8995 -0.516413 53.5531 -0.516413 51.4953 1.56926Z" fill="#19D3C5"/>
<path d="M23.1253 23.4384L37.2403 9.13237C39.2981 7.0467 39.2981 3.65495 37.2403 1.56928C35.1825 -0.516387 31.8361 -0.516387 29.7783 1.56928L19.3993 12.0888L9.01035 1.56928C6.95254 -0.526512 3.6061 -0.526512 1.54829 1.56928C-0.519513 3.65495 -0.519513 7.0467 1.54829 9.13237L11.9272 19.6518L1.85796 29.8574C-0.199854 31.9431 -0.199854 35.3349 1.85796 37.4205C2.88686 38.4634 4.23543 38.9898 5.59398 38.9898C6.95254 38.9898 8.3011 38.4634 9.33001 37.4205L23.1353 23.4283L23.1253 23.4384Z" fill="#19D3C5"/>
</g>
<defs>
<clipPath id="clip0_100_814">
<rect width="282" height="39" fill="white"/>
</clipPath>
</defs>
</svg>
