<svg width="29" height="29" viewBox="0 0 29 29" fill="none" xmlns="http://www.w3.org/2000/svg">
<g opacity="0.4">
<path fill-rule="evenodd" clip-rule="evenodd" d="M15.5611 8.45024C17.5216 10.4107 17.5216 13.5893 15.5611 15.5498C13.6007 17.5102 10.4221 17.5102 8.46162 15.5498C6.50114 13.5893 6.50114 10.4107 8.46162 8.45024C10.4221 6.48976 13.6007 6.48976 15.5611 8.45024ZM18.5943 16.4965C20.7193 13.3929 20.4037 9.12021 17.6474 6.36394C14.5347 3.25123 9.48803 3.25123 6.37532 6.36394C3.26261 9.47665 3.26261 14.5234 6.37532 17.6361C9.13165 20.3924 13.4045 20.708 16.508 18.5828L20.9399 23.0146C21.516 23.5908 22.4501 23.5908 23.0262 23.0146C23.6023 22.4385 23.6023 21.5045 23.0262 20.9283L18.5943 16.4965Z" fill="#000018"/>
</g>
</svg>
