<svg width="32" height="23" viewBox="0 0 32 23" fill="none" xmlns="http://www.w3.org/2000/svg">
<path fill-rule="evenodd" clip-rule="evenodd" d="M0 1.81582C0 0.812986 0.924016 3.05176e-05 2.06385 3.05176e-05H29.4098C30.5496 3.05176e-05 31.4737 0.812986 31.4737 1.81582C31.4737 2.81865 30.5496 3.63161 29.4098 3.63161H2.06385C0.924016 3.63161 0 2.81865 0 1.81582Z" fill="#000018"/>
<path fill-rule="evenodd" clip-rule="evenodd" d="M0 11.5001C0 10.4972 0.924016 9.68427 2.06385 9.68427H29.4098C30.5496 9.68427 31.4737 10.4972 31.4737 11.5001C31.4737 12.5029 30.5496 13.3158 29.4098 13.3158H2.06385C0.924016 13.3158 0 12.5029 0 11.5001Z" fill="#000018"/>
<path fill-rule="evenodd" clip-rule="evenodd" d="M0 21.1843C0 20.1814 0.924016 19.3685 2.06385 19.3685H29.4098C30.5496 19.3685 31.4737 20.1814 31.4737 21.1843C31.4737 22.1871 30.5496 23 29.4098 23H2.06385C0.924016 23 0 22.1871 0 21.1843Z" fill="#000018"/>
</svg>
