<svg width="33" height="33" viewBox="0 0 33 33" fill="none" xmlns="http://www.w3.org/2000/svg">
<path d="M23.3914 0H10.5871C5.29094 0 0.983887 4.32415 0.983887 9.64135V30.5309C0.983887 30.9571 1.15251 31.3658 1.45267 31.6672C1.75283 31.9685 2.15994 32.1378 2.58443 32.1378H23.3914C28.6876 32.1378 32.9947 27.8137 32.9947 22.4965V9.64135C32.9947 4.32415 28.6876 0 23.3914 0ZM29.7936 22.4965C29.7936 26.0413 26.9222 28.9241 23.3914 28.9241H4.18497V9.64135C4.18497 6.09655 7.05634 3.21378 10.5871 3.21378H23.3914C26.9222 3.21378 29.7936 6.09655 29.7936 9.64135V22.4965Z" fill="white"/>
<path d="M8.98633 11.2483H24.9917V14.4621H8.98633V11.2483ZM8.98633 17.6759H20.1901V20.8896H8.98633V17.6759Z" fill="white"/>
</svg>
