<svg width="34" height="33" viewBox="0 0 34 33" fill="none" xmlns="http://www.w3.org/2000/svg">
<path d="M22.9435 17.1407C24.5204 15.9068 25.6714 14.2149 26.2364 12.3002C26.8013 10.3855 26.7522 8.34323 26.0957 6.4576C25.4392 4.57197 24.2081 2.93672 22.5737 1.77934C20.9392 0.621955 18.9826 0 16.9762 0C14.9697 0 13.0132 0.621955 11.3787 1.77934C9.7442 2.93672 8.5131 4.57197 7.85664 6.4576C7.20018 8.34323 7.15102 10.3855 7.71598 12.3002C8.28094 14.2149 9.43194 15.9068 11.0088 17.1407C8.30679 18.2173 5.94915 20.003 4.18727 22.3073C2.42539 24.6117 1.32532 27.3484 1.00433 30.2256C0.981096 30.4356 0.999693 30.6482 1.05906 30.8511C1.11842 31.054 1.2174 31.2433 1.35033 31.4082C1.61879 31.7412 2.00926 31.9545 2.43585 32.0012C2.86243 32.0478 3.29019 31.924 3.62501 31.6571C3.95983 31.3901 4.17429 31.0017 4.22122 30.5775C4.57441 27.4505 6.07364 24.5626 8.43248 22.4655C10.7913 20.3684 13.8444 19.2091 17.0083 19.2091C20.1723 19.2091 23.2254 20.3684 25.5842 22.4655C27.943 24.5626 29.4423 27.4505 29.7955 30.5775C29.8392 30.9705 30.0278 31.3336 30.3248 31.5965C30.6219 31.8594 31.0063 32.0036 31.4039 32.0012H31.5808C32.0025 31.9529 32.3878 31.7409 32.653 31.4113C32.9181 31.0817 33.0415 30.6612 32.9963 30.2416C32.6738 27.3562 31.5678 24.6125 29.7968 22.3046C28.0259 19.9967 25.6568 18.2116 22.9435 17.1407ZM16.9762 16.005C15.7037 16.005 14.4598 15.6297 13.4018 14.9266C12.3437 14.2236 11.5191 13.2243 11.0321 12.0551C10.5452 10.8859 10.4178 9.5994 10.666 8.35822C10.9143 7.11704 11.527 5.97694 12.4268 5.0821C13.3266 4.18725 14.473 3.57786 15.721 3.33097C16.969 3.08409 18.2627 3.2108 19.4383 3.69508C20.6139 4.17937 21.6187 4.99948 22.3257 6.0517C23.0326 7.10392 23.4099 8.341 23.4099 9.6065C23.4099 11.3035 22.7321 12.931 21.5255 14.1309C20.319 15.3308 18.6825 16.005 16.9762 16.005Z" fill="white"/>
<path d="M22.9435 17.1407C24.5204 15.9068 25.6714 14.2149 26.2364 12.3002C26.8013 10.3855 26.7522 8.34323 26.0957 6.4576C25.4392 4.57197 24.2081 2.93672 22.5737 1.77934C20.9392 0.621955 18.9826 0 16.9762 0C14.9697 0 13.0132 0.621955 11.3787 1.77934C9.7442 2.93672 8.5131 4.57197 7.85664 6.4576C7.20018 8.34323 7.15102 10.3855 7.71598 12.3002C8.28094 14.2149 9.43194 15.9068 11.0088 17.1407C8.30679 18.2173 5.94915 20.003 4.18727 22.3073C2.42539 24.6117 1.32532 27.3484 1.00433 30.2256C0.981096 30.4356 0.999693 30.6482 1.05906 30.8511C1.11842 31.054 1.2174 31.2433 1.35033 31.4082C1.61879 31.7412 2.00926 31.9545 2.43585 32.0012C2.86243 32.0478 3.29019 31.924 3.62501 31.6571C3.95983 31.3901 4.17429 31.0017 4.22122 30.5775C4.57441 27.4505 6.07364 24.5626 8.43248 22.4655C10.7913 20.3684 13.8444 19.2091 17.0083 19.2091C20.1723 19.2091 23.2254 20.3684 25.5842 22.4655C27.943 24.5626 29.4423 27.4505 29.7955 30.5775C29.8392 30.9705 30.0278 31.3336 30.3248 31.5965C30.6219 31.8594 31.0063 32.0036 31.4039 32.0012H31.5808C32.0025 31.9529 32.3878 31.7409 32.653 31.4113C32.9181 31.0817 33.0415 30.6612 32.9963 30.2416C32.6738 27.3562 31.5678 24.6125 29.7968 22.3046C28.0259 19.9967 25.6568 18.2116 22.9435 17.1407ZM16.9762 16.005C15.7037 16.005 14.4598 15.6297 13.4018 14.9266C12.3437 14.2236 11.5191 13.2243 11.0321 12.0551C10.5452 10.8859 10.4178 9.5994 10.666 8.35822C10.9143 7.11704 11.527 5.97694 12.4268 5.0821C13.3266 4.18725 14.473 3.57786 15.721 3.33097C16.969 3.08409 18.2627 3.2108 19.4383 3.69508C20.6139 4.17937 21.6187 4.99948 22.3257 6.0517C23.0326 7.10392 23.4099 8.341 23.4099 9.6065C23.4099 11.3035 22.7321 12.931 21.5255 14.1309C20.319 15.3308 18.6825 16.005 16.9762 16.005Z" stroke="white"/>
</svg>
