<svg width="32" height="32" viewBox="0 0 32 32" fill="none" xmlns="http://www.w3.org/2000/svg">
<path fill-rule="evenodd" clip-rule="evenodd" d="M16 29.2174C23.2998 29.2174 29.2174 23.2998 29.2174 16C29.2174 8.70024 23.2998 2.78261 16 2.78261C8.70024 2.78261 2.78261 8.70024 2.78261 16C2.78261 23.2998 8.70024 29.2174 16 29.2174ZM16 32C24.8366 32 32 24.8366 32 16C32 7.16344 24.8366 0 16 0C7.16344 0 0 7.16344 0 16C0 24.8366 7.16344 32 16 32ZM6.26062 15.9999C6.26062 15.2316 6.88353 14.6086 7.65193 14.6086H14.6088V7.65224C14.6088 6.88385 15.2317 6.26094 16.0001 6.26094C16.7685 6.26094 17.3914 6.88385 17.3914 7.65224V14.6086H24.3476C25.116 14.6086 25.7389 15.2316 25.7389 15.9999C25.7389 16.7683 25.116 17.3913 24.3476 17.3913H17.3914V24.3479C17.3914 25.1163 16.7685 25.7392 16.0001 25.7392C15.2317 25.7392 14.6088 25.1163 14.6088 24.3479V17.3913H7.65193C6.88353 17.3913 6.26062 16.7683 6.26062 15.9999Z" fill="#000018"/>
</svg>
