<svg width="33" height="33" viewBox="0 0 33 33" fill="none" xmlns="http://www.w3.org/2000/svg">
<path fill-rule="evenodd" clip-rule="evenodd" d="M28.5049 0H5.43025C4.24652 0 3.11047 0.467021 2.27224 1.29959C1.43388 2.13229 0.962158 3.26252 0.962158 4.44187V10.2236C0.962158 11.403 1.43388 12.5332 2.27224 13.3659C3.11047 14.1985 4.24652 14.6655 5.43025 14.6655H28.5049C29.6886 14.6655 30.8247 14.1985 31.6629 13.3659C32.5013 12.5332 32.973 11.403 32.973 10.2236V4.44187C32.973 3.26252 32.5013 2.13229 31.6629 1.29959C30.8247 0.467021 29.6886 0 28.5049 0ZM4.07723 4.44187C4.07723 4.08779 4.21881 3.74741 4.47211 3.49582C4.72555 3.24409 5.07013 3.10197 5.43025 3.10197H28.5049C28.865 3.10197 29.2096 3.24409 29.463 3.49582C29.7163 3.74741 29.8579 4.0878 29.8579 4.44187V10.2236C29.8579 10.5777 29.7163 10.9181 29.463 11.1697C29.2096 11.4214 28.865 11.5635 28.5049 11.5635H5.43025C5.07013 11.5635 4.72555 11.4214 4.47211 11.1697C4.21881 10.9181 4.07723 10.5777 4.07723 10.2236V4.44187ZM31.6629 18.6449C30.8247 17.8123 29.6886 17.3453 28.5049 17.3453H5.43025C4.24652 17.3453 3.11047 17.8123 2.27224 18.6449C1.43388 19.4776 0.962158 20.6078 0.962158 21.7872V27.569C0.962158 28.7483 1.43388 29.8785 2.27224 30.7112C3.11047 31.5438 4.24652 32.0108 5.43025 32.0108H28.5049C29.6886 32.0108 30.8247 31.5438 31.6629 30.7112C32.5013 29.8785 32.973 28.7483 32.973 27.569V21.7872C32.973 20.6078 32.5013 19.4776 31.6629 18.6449ZM4.07723 21.7872C4.07723 21.4331 4.21881 21.0927 4.47211 20.8411C4.72555 20.5894 5.07013 20.4473 5.43025 20.4473H28.5049C28.865 20.4473 29.2096 20.5894 29.463 20.8411C29.7163 21.0927 29.8579 21.4331 29.8579 21.7872V27.569C29.8579 27.923 29.7163 28.2634 29.463 28.515C29.2096 28.7667 28.865 28.9089 28.5049 28.9089H5.43025C5.07013 28.9089 4.72555 28.7667 4.47211 28.515C4.21881 28.2634 4.07723 27.923 4.07723 27.569V21.7872ZM4.96953 0.6146C4.11001 0.716654 3.30449 1.10216 2.68615 1.71632C1.95837 2.43918 1.54951 3.41959 1.54951 4.44187V10.2236C1.54951 11.2459 1.95837 12.2263 2.68615 12.9492C3.41393 13.6721 4.40101 14.0782 5.43025 14.0782H28.5049C28.5049 14.0782 28.5049 14.0781 28.505 14.0781H5.43033C4.4011 14.0781 3.41402 13.672 2.68624 12.9492C1.95846 12.2263 1.5496 11.2459 1.5496 10.2236V4.44186C1.5496 3.41958 1.95846 2.43917 2.68624 1.71631C3.30456 1.10217 4.11004 0.716669 4.96953 0.6146ZM5.19991 2.52823C5.27597 2.5192 5.35287 2.51461 5.43025 2.51461H28.5049C29.0195 2.51461 29.513 2.71766 29.8769 3.07909C30.2408 3.44052 30.4453 3.93073 30.4453 4.44187V10.2236C30.4453 10.7348 30.2408 11.225 29.8769 11.5864C29.6526 11.8092 29.3791 11.9718 29.0817 12.0638C29.3791 11.9718 29.6527 11.8092 29.877 11.5864C30.2409 11.225 30.4453 10.7348 30.4453 10.2236V4.44186C30.4453 3.93072 30.2409 3.44051 29.877 3.07908C29.5131 2.71765 29.0196 2.5146 28.505 2.5146H5.43033C5.35292 2.5146 5.27599 2.5192 5.19991 2.52823ZM28.505 31.4235H5.43033C4.4011 31.4235 3.41402 31.0174 2.68624 30.2945C1.95846 29.5716 1.5496 28.5912 1.5496 27.5689V21.7872C1.5496 20.7649 1.95846 19.7845 2.68624 19.0616C3.14108 18.6099 3.6972 18.2818 4.30159 18.0993C3.69717 18.2818 3.14102 18.6098 2.68615 19.0616C1.95837 19.7845 1.54951 20.7649 1.54951 21.7872V27.569C1.54951 28.5912 1.95837 29.5716 2.68615 30.2945C3.41393 31.0174 4.40101 31.4235 5.43025 31.4235H28.5049C28.5049 31.4235 28.5049 31.4235 28.505 31.4235ZM5.43025 19.8599H28.5049C29.0195 19.8599 29.513 20.063 29.8769 20.4244C30.2408 20.7858 30.4453 21.276 30.4453 21.7872V27.569C30.4453 28.0801 30.2408 28.5703 29.8769 28.9317C29.6599 29.1473 29.3966 29.3066 29.1103 29.4C29.3967 29.3066 29.6599 29.1473 29.877 28.9317C30.2409 28.5703 30.4453 28.0801 30.4453 27.5689V21.7872C30.4453 21.276 30.2409 20.7858 29.877 20.4244C29.5131 20.063 29.0196 19.8599 28.505 19.8599H5.43033C5.4303 19.8599 5.43028 19.8599 5.43025 19.8599Z" fill="white"/>
</svg>
