<svg width="18" height="21" viewBox="0 0 18 21" fill="none" xmlns="http://www.w3.org/2000/svg">
<path fill-rule="evenodd" clip-rule="evenodd" d="M5.57735 1.99579C4.35321 2.32488 3.13701 2.68282 1.92977 3.06931C1.82052 3.10304 1.723 3.1669 1.64841 3.25356C1.57383 3.34022 1.5252 3.44617 1.50813 3.55923C0.794675 8.77559 2.4411 12.5824 4.40477 15.0896C5.38995 16.3478 6.45678 17.2795 7.34558 17.8912C7.79132 18.1964 8.18352 18.4186 8.49273 18.5605C8.648 18.6314 8.77382 18.6796 8.8702 18.7077C8.9127 18.7214 8.95608 18.7321 9.00004 18.7398C9.00941 18.7385 9.05091 18.7331 9.12988 18.709C9.22626 18.6796 9.35208 18.6314 9.50735 18.5605C9.81522 18.4186 10.2101 18.1964 10.6545 17.8912C11.769 17.1092 12.7603 16.1649 13.5953 15.0896C15.559 12.5824 17.2054 8.77559 16.492 3.55923C16.4749 3.44617 16.4263 3.34022 16.3517 3.25356C16.2771 3.1669 16.1796 3.10304 16.0703 3.06931C15.2324 2.8016 13.8189 2.36523 12.4227 1.99579C10.9958 1.61966 9.68271 1.33856 9.00004 1.33856C8.31738 1.33856 7.00559 1.61966 5.57735 1.99579ZM5.23467 0.702743C6.63079 0.333301 8.11258 0 9.00004 0C9.88617 0 11.3693 0.333301 12.7654 0.702743C14.0107 1.03708 15.2478 1.40082 16.4759 1.79367C17.1827 2.01855 17.7154 2.62759 17.8185 3.37852C18.5855 8.99645 16.8065 13.1594 14.6501 15.9141C13.7312 17.0963 12.6402 18.1341 11.4135 18.9928C10.9869 19.2916 10.536 19.554 10.0655 19.7772C9.70412 19.9432 9.31862 20.0784 9.00004 20.0784C8.68146 20.0784 8.29596 19.9432 7.93455 19.7772C7.46395 19.5542 7.01304 19.2918 6.58662 18.9928C5.36042 18.134 4.26987 17.0962 3.35132 15.9141C1.19223 13.1594 -0.58538 8.99645 0.181614 3.37852C0.232896 3.01453 0.386209 2.6725 0.623809 2.39202C0.861408 2.11155 1.17358 1.90409 1.52419 1.79367C2.75225 1.40083 3.98942 1.03709 5.23467 0.702743Z" fill="white"/>
<path fill-rule="evenodd" clip-rule="evenodd" d="M12.8191 7.56162C12.8814 7.62379 12.9309 7.69764 12.9646 7.77895C12.9984 7.86026 13.0157 7.94743 13.0157 8.03547C13.0157 8.1235 12.9984 8.21067 12.9646 8.29198C12.9309 8.37329 12.8814 8.44715 12.8191 8.50932L8.80342 12.525C8.74125 12.5873 8.6674 12.6368 8.58609 12.6705C8.50478 12.7042 8.41761 12.7216 8.32957 12.7216C8.24154 12.7216 8.15437 12.7042 8.07306 12.6705C7.99175 12.6368 7.91789 12.5873 7.85572 12.525L5.84789 10.5172C5.78566 10.4549 5.7363 10.3811 5.70262 10.2997C5.66894 10.2184 5.65161 10.1313 5.65161 10.0433C5.65161 9.9553 5.66894 9.86816 5.70262 9.78686C5.7363 9.70555 5.78566 9.63168 5.84789 9.56945C5.91011 9.50723 5.98399 9.45787 6.06529 9.42419C6.14659 9.39051 6.23373 9.37318 6.32174 9.37318C6.40974 9.37318 6.49688 9.39051 6.57818 9.42419C6.65949 9.45787 6.73336 9.50723 6.79559 9.56945L8.32957 11.1048L11.8714 7.56162C11.9336 7.49929 12.0074 7.44984 12.0887 7.4161C12.17 7.38236 12.2572 7.36499 12.3452 7.36499C12.4333 7.36499 12.5205 7.38236 12.6018 7.4161C12.6831 7.44984 12.7569 7.49929 12.8191 7.56162Z" fill="white"/>
</svg>
