<svg width="6" height="22" viewBox="0 0 6 22" fill="none" xmlns="http://www.w3.org/2000/svg">
<path d="M6 11C6 11.7293 5.68393 12.4288 5.12132 12.9445C4.55871 13.4603 3.79565 13.75 3 13.75C2.20435 13.75 1.44129 13.4603 0.87868 12.9445C0.316071 12.4288 0 11.7293 0 11C0 10.2707 0.316071 9.57118 0.87868 9.05546C1.44129 8.53973 2.20435 8.25 3 8.25C3.79565 8.25 4.55871 8.53973 5.12132 9.05546C5.68393 9.57118 6 10.2707 6 11ZM6 2.75C6 3.47935 5.68393 4.17882 5.12132 4.69454C4.55871 5.21027 3.79565 5.5 3 5.5C2.20435 5.5 1.44129 5.21027 0.87868 4.69454C0.316071 4.17882 0 3.47935 0 2.75C0 2.02065 0.316071 1.32118 0.87868 0.805456C1.44129 0.289731 2.20435 0 3 0C3.79565 0 4.55871 0.289731 5.12132 0.805456C5.68393 1.32118 6 2.02065 6 2.75ZM6 19.25C6 19.9793 5.68393 20.6788 5.12132 21.1945C4.55871 21.7103 3.79565 22 3 22C2.20435 22 1.44129 21.7103 0.87868 21.1945C0.316071 20.6788 0 19.9793 0 19.25C0 18.5207 0.316071 17.8212 0.87868 17.3055C1.44129 16.7897 2.20435 16.5 3 16.5C3.79565 16.5 4.55871 16.7897 5.12132 17.3055C5.68393 17.8212 6 18.5207 6 19.25Z" fill="#000018"/>
</svg>
