<svg width="18" height="21" viewBox="0 0 18 21" fill="none" xmlns="http://www.w3.org/2000/svg">
<path fill-rule="evenodd" clip-rule="evenodd" d="M5.57735 1.99579C4.35321 2.32488 3.13701 2.68282 1.92977 3.06931C1.82052 3.10304 1.723 3.1669 1.64841 3.25356C1.57383 3.34022 1.5252 3.44617 1.50813 3.55923C0.794675 8.77559 2.4411 12.5824 4.40477 15.0896C5.38995 16.3478 6.45678 17.2795 7.34558 17.8912C7.79132 18.1964 8.18352 18.4186 8.49273 18.5605C8.648 18.6314 8.77382 18.6796 8.8702 18.7077C8.9127 18.7214 8.95608 18.7321 9.00004 18.7398C9.00941 18.7385 9.05091 18.7331 9.12988 18.709C9.22626 18.6796 9.35208 18.6314 9.50735 18.5605C9.81522 18.4186 10.2101 18.1964 10.6545 17.8912C11.769 17.1092 12.7603 16.1649 13.5953 15.0896C15.559 12.5824 17.2054 8.77559 16.492 3.55923C16.4749 3.44617 16.4263 3.34022 16.3517 3.25356C16.2771 3.1669 16.1796 3.10304 16.0703 3.06931C15.2324 2.8016 13.8189 2.36523 12.4227 1.99579C10.9958 1.61966 9.68271 1.33856 9.00004 1.33856C8.31738 1.33856 7.00559 1.61966 5.57735 1.99579ZM5.23467 0.702743C6.63079 0.333301 8.11258 0 9.00004 0C9.88617 0 11.3693 0.333301 12.7654 0.702743C14.0107 1.03708 15.2478 1.40082 16.4759 1.79367C17.1827 2.01855 17.7154 2.62759 17.8185 3.37852C18.5855 8.99645 16.8065 13.1594 14.6501 15.9141C13.7312 17.0963 12.6402 18.1341 11.4135 18.9928C10.9869 19.2916 10.536 19.554 10.0655 19.7772C9.70412 19.9432 9.31862 20.0784 9.00004 20.0784C8.68146 20.0784 8.29596 19.9432 7.93455 19.7772C7.46395 19.5542 7.01304 19.2918 6.58662 18.9928C5.36042 18.134 4.26987 17.0962 3.35132 15.9141C1.19223 13.1594 -0.58538 8.99645 0.181614 3.37852C0.232896 3.01453 0.386209 2.6725 0.623809 2.39202C0.861408 2.11155 1.17358 1.90409 1.52419 1.79367C2.75225 1.40083 3.98942 1.03709 5.23467 0.702743Z" fill="white"/>
<path fill-rule="evenodd" clip-rule="evenodd" d="M9.29972 6.28227C10.133 7.11553 10.133 8.46651 9.29972 9.29976C8.46646 10.133 7.11548 10.133 6.28222 9.29976C5.44896 8.46651 5.44896 7.11553 6.28222 6.28227C7.11548 5.44901 8.46646 5.44901 9.29972 6.28227ZM10.5889 9.70207C11.4921 8.38297 11.3579 6.567 10.1865 5.39553C8.86346 4.07254 6.71847 4.07254 5.39548 5.39553C4.07249 6.71852 4.07249 8.86351 5.39548 10.1865C6.56702 11.358 8.38313 11.4922 9.70225 10.5888L11.5859 12.4725C11.8307 12.7173 12.2277 12.7173 12.4726 12.4725C12.7175 12.2276 12.7175 11.8306 12.4726 11.5857L10.5889 9.70207Z" fill="white"/>
</svg>
