<svg width="20" height="19" viewBox="0 0 20 19" fill="none" xmlns="http://www.w3.org/2000/svg">
<path fill-rule="evenodd" clip-rule="evenodd" d="M11.2573 1.55946C11.6063 1.55946 11.941 1.69808 12.1877 1.94484C12.4345 2.1916 12.5731 2.52628 12.5731 2.87525V4.97077C12.5731 5.4014 12.9222 5.7505 13.3528 5.7505C13.7835 5.7505 14.1326 5.4014 14.1326 4.97077V2.87525C14.1326 2.11269 13.8296 1.38136 13.2904 0.842141C12.7512 0.302927 12.0199 0 11.2573 0H2.87523C2.11267 0 1.38134 0.302927 0.842124 0.842141C0.302909 1.38136 -1.81198e-05 2.11269 -1.81198e-05 2.87525V15.4484C-1.81198e-05 16.2109 0.302909 16.9423 0.842124 17.4815C1.38134 18.0207 2.11267 18.3236 2.87523 18.3236H10.8382C11.6107 18.3236 12.4054 18.0179 13.0104 17.5439C13.6124 17.0722 14.1326 16.344 14.1326 15.4484V13.3529C14.1326 12.9222 13.7835 12.5731 13.3528 12.5731C12.9222 12.5731 12.5731 12.9222 12.5731 13.3529V15.4484C12.5731 15.7101 12.4146 16.0296 12.0486 16.3163C11.6856 16.6008 11.2229 16.7642 10.8382 16.7642H2.87523C2.52626 16.7642 2.19158 16.6255 1.94483 16.3788C1.69807 16.132 1.55944 15.7973 1.55944 15.4484V2.87525C1.55944 2.52628 1.69807 2.1916 1.94483 1.94484C2.19158 1.69808 2.52626 1.55946 2.87523 1.55946H11.2573Z" fill="white"/>
<path fill-rule="evenodd" clip-rule="evenodd" d="M8.87491 4.4193C8.57041 4.11479 8.07671 4.11479 7.77221 4.4193L3.58116 8.61034C3.43494 8.75657 3.35279 8.95489 3.35279 9.16169C3.35279 9.36849 3.43494 9.56681 3.58116 9.71304L7.77221 13.9041C8.07671 14.2086 8.57041 14.2086 8.87491 13.9041C9.17941 13.5996 9.17941 13.1059 8.87491 12.8014L6.01495 9.94142H19.2203C19.6509 9.94142 20 9.59232 20 9.16169C20 8.73106 19.6509 8.38196 19.2203 8.38196H6.01495L8.87491 5.522C9.17941 5.21749 9.17941 4.7238 8.87491 4.4193Z" fill="white"/>
</svg>
