<svg width="20" height="20" viewBox="0 0 20 20" fill="none" xmlns="http://www.w3.org/2000/svg">
<path fill-rule="evenodd" clip-rule="evenodd" d="M10 6.42857C8.02755 6.42857 6.42857 8.02755 6.42857 10C6.42857 11.9724 8.02755 13.5714 10 13.5714C11.9724 13.5714 13.5714 11.9724 13.5714 10C13.5714 8.02755 11.9724 6.42857 10 6.42857ZM5 10C5 7.23858 7.23858 5 10 5C12.7614 5 15 7.23858 15 10C15 12.7614 12.7614 15 10 15C7.23858 15 5 12.7614 5 10Z" fill="white"/>
<path fill-rule="evenodd" clip-rule="evenodd" d="M10 0C10.4332 0 10.7843 0.351149 10.7843 0.784314V2.1496C10.7843 2.58277 10.4332 2.93391 10 2.93391C9.56684 2.93391 9.21569 2.58277 9.21569 2.1496V0.784314C9.21569 0.351149 9.56684 0 10 0ZM2.27765 2.27765C2.58394 1.97136 3.08054 1.97136 3.38684 2.27765L4.06948 2.96029C4.37577 3.26659 4.37577 3.76319 4.06948 4.06948C3.76319 4.37577 3.26659 4.37577 2.96029 4.06948L2.27765 3.38684C1.97136 3.08054 1.97136 2.58394 2.27765 2.27765ZM17.7224 2.27765C18.0286 2.58394 18.0286 3.08054 17.7224 3.38684L17.0397 4.06948C16.7334 4.37577 16.2368 4.37577 15.9305 4.06948C15.6242 3.76319 15.6242 3.26659 15.9305 2.96029L16.6132 2.27765C16.9195 1.97136 17.4161 1.97136 17.7224 2.27765ZM0 10C0 9.56684 0.351149 9.21569 0.784314 9.21569H2.1496C2.58277 9.21569 2.93391 9.56684 2.93391 10C2.93391 10.4332 2.58277 10.7843 2.1496 10.7843H0.784314C0.351149 10.7843 0 10.4332 0 10ZM17.0661 10C17.0661 9.56684 17.4172 9.21569 17.8504 9.21569H19.2157C19.6489 9.21569 20 9.56684 20 10C20 10.4332 19.6489 10.7843 19.2157 10.7843H17.8504C17.4172 10.7843 17.0661 10.4332 17.0661 10ZM4.06948 15.9305C4.37577 16.2368 4.37577 16.7334 4.06948 17.0397L3.38684 17.7224C3.08054 18.0286 2.58394 18.0286 2.27765 17.7224C1.97136 17.4161 1.97136 16.9195 2.27765 16.6132L2.96029 15.9305C3.26659 15.6242 3.76319 15.6242 4.06948 15.9305ZM15.9305 15.9305C16.2368 15.6242 16.7334 15.6242 17.0397 15.9305L17.7224 16.6132C18.0286 16.9195 18.0286 17.4161 17.7224 17.7224C17.4161 18.0286 16.9195 18.0286 16.6132 17.7224L15.9305 17.0397C15.6242 16.7334 15.6242 16.2368 15.9305 15.9305ZM10 17.0661C10.4332 17.0661 10.7843 17.4172 10.7843 17.8504V19.2157C10.7843 19.6489 10.4332 20 10 20C9.56684 20 9.21569 19.6489 9.21569 19.2157V17.8504C9.21569 17.4172 9.56684 17.0661 10 17.0661Z" fill="white"/>
</svg>
