<svg width="23" height="22" viewBox="0 0 23 22" fill="none" xmlns="http://www.w3.org/2000/svg">
<path d="M20.1492 12.135C19.8953 12.135 19.6299 12.0575 19.376 12.0022C18.8618 11.8935 18.3565 11.7492 17.864 11.5704C17.3286 11.3835 16.7401 11.3932 16.2116 11.5976C15.6832 11.802 15.2523 12.1867 15.0017 12.6776L14.7478 13.1758C13.6237 12.5759 12.5907 11.8308 11.6778 10.9614C10.7715 10.0857 9.99487 9.09472 9.36953 8.01633L9.85427 7.70632C10.366 7.46597 10.7669 7.05256 10.98 6.54565C11.1931 6.03874 11.2032 5.47415 11.0084 4.96051C10.8252 4.48711 10.6748 4.00258 10.5583 3.51011C10.5006 3.26653 10.4544 3.01188 10.4198 2.75723C10.2796 1.97735 9.85384 1.27111 9.21905 0.765677C8.58427 0.260247 7.78223 -0.0111535 6.95737 0.000351311H3.49494C2.99754 -0.00412893 2.50497 0.094255 2.05077 0.288805C1.59657 0.483355 1.1914 0.769504 0.862835 1.12777C0.534274 1.48604 0.290038 1.90801 0.146755 2.36497C0.00347246 2.82192 -0.0354939 3.30313 0.032509 3.77583C0.647365 8.41423 2.85558 12.7239 6.30834 16.0241C9.7611 19.3244 14.2616 21.427 19.099 22H19.5375C20.3886 22.0012 21.2103 21.7016 21.8458 21.1585C22.2109 20.8453 22.5026 20.4612 22.7016 20.0318C22.9005 19.6024 23.0022 19.1373 23 18.6674V15.3459C22.9858 14.5768 22.6939 13.8363 22.174 13.2507C21.6541 12.6651 20.9384 12.2708 20.1492 12.135ZM20.7263 18.7781C20.7261 18.9353 20.691 19.0907 20.6233 19.2338C20.5557 19.377 20.457 19.5047 20.3339 19.6085C20.2049 19.7153 20.0541 19.7951 19.8912 19.8428C19.7282 19.8904 19.5566 19.9049 19.3875 19.8853C15.0651 19.3536 11.0502 17.4567 7.97615 14.4936C4.90207 11.5306 2.94373 7.67015 2.41004 3.52118C2.39168 3.359 2.40777 3.19493 2.45737 3.03888C2.50696 2.88284 2.58902 2.73806 2.69858 2.61329C2.80674 2.49519 2.93987 2.40054 3.08912 2.33563C3.23837 2.27073 3.40032 2.23705 3.56419 2.23685H7.02662C7.29501 2.23112 7.55709 2.31533 7.76774 2.47497C7.9784 2.63462 8.12445 2.85972 8.18076 3.11152C8.22693 3.41415 8.28463 3.71309 8.35388 4.00834C8.48721 4.59198 8.66465 5.16554 8.88479 5.72447L7.26899 6.44413C7.13083 6.50494 7.00656 6.59133 6.90331 6.69834C6.80005 6.80534 6.71985 6.93086 6.6673 7.06769C6.61475 7.20452 6.5909 7.34995 6.5971 7.49564C6.60331 7.64134 6.63945 7.78442 6.70346 7.91668C8.3645 11.3298 11.2245 14.0735 14.7825 15.6669C15.0635 15.7777 15.3786 15.7777 15.6596 15.6669C15.8035 15.6175 15.9358 15.5412 16.0488 15.4424C16.1617 15.3435 16.253 15.2242 16.3175 15.0912L17.033 13.5412C17.6297 13.7458 18.2386 13.9159 18.8566 14.0505C19.1644 14.1169 19.476 14.1722 19.7914 14.2165C20.0539 14.2705 20.2886 14.4107 20.455 14.6127C20.6214 14.8148 20.7092 15.0662 20.7032 15.3237L20.7263 18.7781Z" fill="#000018"/>
</svg>
